<svg width="3031" height="720" viewBox="0 0 3031 720" fill="none" xmlns="http://www.w3.org/2000/svg">
<path opacity="0.996" fill-rule="evenodd" clip-rule="evenodd" d="M334.5 9.49976C345.977 7.49097 354.477 11.491 360 21.4998C370.014 151.791 430.847 249.958 542.5 316C583.51 338.114 627.177 351.781 673.5 357C677.5 358.667 677.5 360.333 673.5 362C561.863 376.747 475.363 430.913 414 524.5C381.736 577.629 363.736 635.296 360 697.5C356.125 705.691 349.625 709.691 340.5 709.5C215.381 697.237 121.214 637.237 57.9996 529.5C7.87705 433.45 1.21038 334.45 37.9996 232.5C73.4362 144.729 133.937 80.5624 219.5 39.9998C256.325 23.7119 294.658 13.5453 334.5 9.49976Z" fill="white"/>
<path opacity="0.975" fill-rule="evenodd" clip-rule="evenodd" d="M1876.5 77.4998C1905.82 75.3282 1932.49 82.4949 1956.5 98.9998C1971.26 111.85 1980.59 127.85 1984.5 147C1969.49 147.833 1954.49 147.666 1939.5 146.5C1934.3 131.133 1923.97 120.966 1908.5 116C1886.65 109.909 1865.98 112.575 1846.5 124C1832.25 137.746 1831.92 151.746 1845.5 166C1849.89 168.861 1854.55 171.194 1859.5 173C1884.04 179.508 1908.7 185.508 1933.5 191C1952.85 195.413 1968.69 205.247 1981 220.5C1994.91 247.87 1993.24 274.203 1976 299.5C1961.71 315.731 1943.88 325.898 1922.5 330C1894 336.039 1866 334.372 1838.5 325C1807.61 310.946 1789.94 287.112 1785.5 253.5C1800.18 253.167 1814.85 253.501 1829.5 254.5C1834.86 280.687 1850.86 295.187 1877.5 298C1893.63 299.526 1909.29 297.526 1924.5 292C1946.02 282.112 1952.18 266.278 1943 244.5C1935.05 236.608 1925.55 231.441 1914.5 229C1892.9 223.746 1871.23 218.746 1849.5 214C1831.59 209.297 1816.42 200.131 1804 186.5C1788.38 161.312 1788.71 136.312 1805 111.5C1824.18 90.3251 1848.02 78.9918 1876.5 77.4998Z" fill="white"/>
<path opacity="0.978" fill-rule="evenodd" clip-rule="evenodd" d="M889.5 81.4998C926.524 81.066 963.524 81.566 1000.5 82.9998C1059.33 91.1665 1092.83 124.667 1101 183.5C1105.64 217.386 1099.97 249.386 1084 279.5C1062.65 310.102 1033.15 326.602 995.5 329C960.168 329.5 924.835 329.667 889.5 329.5C889.5 246.833 889.5 164.167 889.5 81.4998ZM932.5 118.5C953.53 118.112 974.53 118.612 995.5 120C1032.43 127.938 1052.93 150.771 1057 188.5C1059.73 210.56 1057.06 231.893 1049 252.5C1037.04 275.914 1017.88 289.081 991.5 292C971.836 292.5 952.169 292.667 932.5 292.5C932.5 234.5 932.5 176.5 932.5 118.5Z" fill="white"/>
<path opacity="0.978" fill-rule="evenodd" clip-rule="evenodd" d="M2204.5 81.5C2218.83 81.5 2233.17 81.5 2247.5 81.5C2247.5 96.8333 2247.5 112.167 2247.5 127.5C2233.17 127.5 2218.83 127.5 2204.5 127.5C2204.5 112.167 2204.5 96.8333 2204.5 81.5Z" fill="white"/>
<path opacity="0.971" fill-rule="evenodd" clip-rule="evenodd" d="M1198.5 149.5C1228.9 146.682 1254.4 156.349 1275 178.5C1291.19 201.273 1297.36 226.606 1293.5 254.5C1250.5 254.5 1207.5 254.5 1164.5 254.5C1165.36 272.389 1172.69 286.889 1186.5 298C1201.3 306.288 1216.3 306.622 1231.5 299C1239.75 293.929 1245.08 286.763 1247.5 277.5C1261.85 277.167 1276.18 277.501 1290.5 278.5C1279.9 311.586 1257.24 329.753 1222.5 333C1167.24 337.988 1134.07 313.488 1123 259.5C1118.3 230.33 1124.3 203.664 1141 179.5C1156.3 161.935 1175.47 151.935 1198.5 149.5ZM1199.5 179.5C1231.02 178.017 1248.35 193.017 1251.5 224.5C1222.5 224.5 1193.5 224.5 1164.5 224.5C1166.43 201.529 1178.1 186.529 1199.5 179.5Z" fill="white"/>
<path opacity="0.971" fill-rule="evenodd" clip-rule="evenodd" d="M1388.5 149.5C1418.9 146.682 1444.4 156.349 1465 178.5C1481.19 201.282 1487.36 226.615 1483.5 254.5C1440.5 254.5 1397.5 254.5 1354.5 254.5C1355.36 272.389 1362.69 286.889 1376.5 298C1391.31 306.292 1406.31 306.626 1421.5 299C1429.75 293.929 1435.08 286.763 1437.5 277.5C1451.83 277.5 1466.17 277.5 1480.5 277.5C1471.37 308.129 1451.03 326.296 1419.5 332C1394.27 336.74 1370.61 332.74 1348.5 320C1328.34 304.87 1316.51 284.703 1313 259.5C1308.3 230.328 1314.3 203.661 1331 179.5C1346.3 161.935 1365.47 151.935 1388.5 149.5ZM1389.5 179.5C1421.03 178.022 1438.36 193.022 1441.5 224.5C1412.5 224.5 1383.5 224.5 1354.5 224.5C1356.42 201.571 1368.08 186.571 1389.5 179.5Z" fill="white"/>
<path opacity="0.978" fill-rule="evenodd" clip-rule="evenodd" d="M1606.5 149.5C1643.65 148.824 1668.82 165.824 1682 200.5C1690.92 228.941 1690.59 257.275 1681 285.5C1662.71 326.561 1631.88 341.061 1588.5 329C1570.25 320.658 1558.41 306.825 1553 287.5C1552.5 322.498 1552.33 357.498 1552.5 392.5C1538.83 392.5 1525.17 392.5 1511.5 392.5C1511.5 312.833 1511.5 233.167 1511.5 153.5C1525.17 153.5 1538.83 153.5 1552.5 153.5C1552.33 168.504 1552.5 183.504 1553 198.5C1560.58 170.741 1578.42 154.408 1606.5 149.5ZM1591.5 179.5C1615.41 176.702 1631.91 186.368 1641 208.5C1649.05 233.236 1648.05 257.569 1638 281.5C1624.91 301.865 1606.75 308.365 1583.5 301C1571.27 295.771 1562.77 286.938 1558 274.5C1549.6 249.257 1550.93 224.59 1562 200.5C1569 189.426 1578.83 182.426 1591.5 179.5Z" fill="white"/>
<path opacity="0.972" fill-rule="evenodd" clip-rule="evenodd" d="M2087.5 149.5C2117.9 146.684 2143.4 156.351 2164 178.5C2172.08 189.497 2177.58 201.664 2180.5 215C2166.17 215.5 2151.84 215.667 2137.5 215.5C2128.49 183.325 2108.15 172.825 2076.5 184C2063.53 192.755 2055.7 204.921 2053 220.5C2049.79 237.296 2050.45 253.963 2055 270.5C2066.66 301.076 2087.82 310.576 2118.5 299C2129.03 291.802 2136.03 281.968 2139.5 269.5C2153.48 268.501 2167.48 268.167 2181.5 268.5C2174.65 301.852 2154.65 322.685 2121.5 331C2091.63 337.914 2064.3 332.581 2039.5 315C2015.91 292.235 2005.74 264.402 2009 231.5C2014.01 183.659 2040.18 156.326 2087.5 149.5Z" fill="white"/>
<path opacity="0.972" fill-rule="evenodd" clip-rule="evenodd" d="M2350.5 149.5C2411.39 148.89 2443.39 179.057 2446.5 240C2445.8 244.811 2445.47 249.644 2445.5 254.5C2402.16 254.167 2358.83 254.5 2315.5 255.5C2317.02 270.241 2322.68 283.075 2332.5 294C2350.33 307.133 2368.66 307.8 2387.5 296C2392.87 291.128 2396.87 285.295 2399.5 278.5C2413.82 277.334 2428.16 277.167 2442.5 278C2431.53 310.627 2408.86 328.96 2374.5 333C2342.87 337.346 2316.03 328.179 2294 305.5C2274.7 278.321 2268.7 248.321 2276 215.5C2285.89 176.493 2310.72 154.493 2350.5 149.5ZM2351.5 179.5C2383 177.996 2400.33 192.996 2403.5 224.5C2374.5 224.5 2345.5 224.5 2316.5 224.5C2317.6 207.122 2325.27 193.622 2339.5 184C2343.57 182.37 2347.57 180.87 2351.5 179.5Z" fill="white"/>
<path opacity="0.981" fill-rule="evenodd" clip-rule="evenodd" d="M2562.5 149.5C2602.18 148.674 2624.34 168.007 2629 207.5C2629.5 248.165 2629.67 288.832 2629.5 329.5C2615.5 329.5 2601.5 329.5 2587.5 329.5C2587.97 289.127 2587.47 248.794 2586 208.5C2579.57 185.192 2564.4 176.025 2540.5 181C2527.48 185.186 2519.65 194.02 2517 207.5C2516.09 211.795 2515.42 216.128 2515 220.5C2514.5 256.832 2514.33 293.165 2514.5 329.5C2500.83 329.5 2487.17 329.5 2473.5 329.5C2473.5 270.833 2473.5 212.167 2473.5 153.5C2487.17 153.5 2500.83 153.5 2514.5 153.5C2514.33 166.504 2514.5 179.504 2515 192.5C2521.91 168.083 2537.74 153.749 2562.5 149.5Z" fill="white"/>
<path opacity="0.972" fill-rule="evenodd" clip-rule="evenodd" d="M2733.5 149.5C2756.32 147.627 2777.32 152.794 2796.5 165C2813.04 177.903 2823.04 194.737 2826.5 215.5C2812.5 215.667 2798.5 215.5 2784.5 215C2776.12 185.643 2757.12 174.643 2727.5 182C2710.71 190.714 2701.21 204.547 2699 223.5C2694.99 245.744 2698.32 266.744 2709 286.5C2720.37 301.092 2735.2 306.592 2753.5 303C2763.12 301.046 2770.95 296.213 2777 288.5C2780.84 282.322 2784.01 275.822 2786.5 269C2800.51 268.167 2814.51 268.334 2828.5 269.5C2818.72 306.778 2794.72 327.945 2756.5 333C2726.15 336.883 2699.99 328.383 2678 307.5C2659.31 283.752 2651.98 256.752 2656 226.5C2663.17 181.825 2689.01 156.158 2733.5 149.5Z" fill="white"/>
<path opacity="0.971" fill-rule="evenodd" clip-rule="evenodd" d="M2919.5 149.5C2975.11 147.291 3006.95 173.625 3015 228.5C3015.71 237.194 3015.54 245.861 3014.5 254.5C2971.5 254.5 2928.5 254.5 2885.5 254.5C2886.3 270.931 2892.63 284.764 2904.5 296C2919.95 305.823 2935.95 306.823 2952.5 299C2960.38 293.787 2966.05 286.787 2969.5 278C2983.5 277.5 2997.5 277.333 3011.5 277.5C3002.37 308.129 2982.03 326.296 2950.5 332C2925.27 336.74 2901.61 332.74 2879.5 320C2859.36 304.906 2847.52 284.739 2844 259.5C2839.79 231.758 2845.12 206.091 2860 182.5C2875.16 163.006 2894.99 152.006 2919.5 149.5ZM2921.5 179.5C2952.51 178.505 2969.51 193.505 2972.5 224.5C2943.49 224.833 2914.49 224.5 2885.5 223.5C2887.3 207.385 2894.63 194.551 2907.5 185C2912.02 182.445 2916.68 180.612 2921.5 179.5Z" fill="white"/>
<path opacity="0.993" fill-rule="evenodd" clip-rule="evenodd" d="M2205.5 153.5C2219.17 153.5 2232.83 153.5 2246.5 153.5C2246.5 212.167 2246.5 270.833 2246.5 329.5C2232.83 329.5 2219.17 329.5 2205.5 329.5C2205.5 270.833 2205.5 212.167 2205.5 153.5Z" fill="white"/>
<path opacity="0.973" fill-rule="evenodd" clip-rule="evenodd" d="M875.5 391.5C891.167 391.5 906.833 391.5 922.5 391.5C947.023 472.572 971.857 553.572 997 634.5C1022.15 553.566 1046.98 472.566 1071.5 391.5C1087.17 391.5 1102.83 391.5 1118.5 391.5C1092.31 474.241 1065.81 556.907 1039 639.5C1025.07 640.163 1011.07 640.496 997 640.5C982.927 640.496 968.927 640.163 955 639.5C928.189 556.901 901.689 474.235 875.5 391.5Z" fill="white"/>
<path opacity="0.979" fill-rule="evenodd" clip-rule="evenodd" d="M1511.5 422.5C1525.17 422.5 1538.83 422.5 1552.5 422.5C1552.11 443.125 1542.11 456.625 1522.5 463C1546.5 463.5 1570.5 463.667 1594.5 463.5C1594.5 473.833 1594.5 484.167 1594.5 494.5C1580.5 494.5 1566.5 494.5 1552.5 494.5C1552.33 526.835 1552.5 559.168 1553 591.5C1553.58 600.748 1558.42 606.248 1567.5 608C1576.83 608.5 1586.16 608.666 1595.5 608.5C1595.5 619.167 1595.5 629.833 1595.5 640.5C1577.6 641.398 1559.93 639.898 1542.5 636C1525.5 630.006 1515.34 618.173 1512 600.5C1511.5 565.168 1511.33 529.835 1511.5 494.5C1499.83 494.5 1488.17 494.5 1476.5 494.5C1476.5 484.167 1476.5 473.833 1476.5 463.5C1488.17 463.5 1499.83 463.5 1511.5 463.5C1511.5 449.833 1511.5 436.167 1511.5 422.5Z" fill="white"/>
<path opacity="0.971" fill-rule="evenodd" clip-rule="evenodd" d="M1187.5 459.5C1240.19 458.367 1271.02 483.7 1280 535.5C1280.67 544.833 1280.67 554.167 1280 563.5C1236.91 564.497 1193.74 564.83 1150.5 564.5C1151.37 582.413 1158.71 596.913 1172.5 608C1189.57 617.026 1206.23 616.359 1222.5 606C1227.75 600.827 1231.75 594.827 1234.5 588C1248.5 587.5 1262.5 587.333 1276.5 587.5C1270.59 610.807 1256.59 627.307 1234.5 637C1208.82 645.645 1183.15 645.645 1157.5 637C1128.68 622.914 1112.51 599.747 1109 567.5C1105.11 539.924 1110.78 514.59 1126 491.5C1142.03 472.233 1162.53 461.566 1187.5 459.5ZM1187.5 489.5C1217.61 489.103 1234.61 503.936 1238.5 534C1209.17 534.667 1179.83 534.667 1150.5 534C1152.52 522.935 1156.69 512.769 1163 503.5C1169.65 495.98 1177.82 491.313 1187.5 489.5Z" fill="white"/>
<path opacity="0.966" fill-rule="evenodd" clip-rule="evenodd" d="M1398.5 459.5C1439.05 459.543 1460.88 479.877 1464 520.5C1464.5 560.499 1464.67 600.499 1464.5 640.5C1450.5 640.5 1436.5 640.5 1422.5 640.5C1422.96 600.136 1422.46 559.803 1421 519.5C1414.88 495.734 1399.71 486.234 1375.5 491C1362.83 495.007 1354.99 503.507 1352 516.5C1351.23 520.147 1350.56 523.814 1350 527.5C1349.5 565.165 1349.33 602.832 1349.5 640.5C1335.5 640.5 1321.5 640.5 1307.5 640.5C1307.5 581.5 1307.5 522.5 1307.5 463.5C1321.5 463.5 1335.5 463.5 1349.5 463.5C1349.33 476.171 1349.5 488.838 1350 501.5C1357.54 477.344 1373.7 463.344 1398.5 459.5Z" fill="white"/>
<path opacity="0.973" fill-rule="evenodd" clip-rule="evenodd" d="M1897.5 459.5C1899.83 459.5 1902.17 459.5 1904.5 459.5C1904.5 473.167 1904.5 486.833 1904.5 500.5C1891.56 499.846 1878.89 501.346 1866.5 505C1855.86 509.77 1849.7 517.937 1848 529.5C1847.5 566.498 1847.33 603.498 1847.5 640.5C1833.5 640.5 1819.5 640.5 1805.5 640.5C1805.5 581.5 1805.5 522.5 1805.5 463.5C1819.17 463.5 1832.83 463.5 1846.5 463.5C1846.33 479.503 1846.5 495.503 1847 511.5C1851 481.342 1867.83 464.008 1897.5 459.5Z" fill="white"/>
<path opacity="0.97" fill-rule="evenodd" clip-rule="evenodd" d="M1992.5 459.5C2044.82 458.344 2075.65 483.344 2085 534.5C2085.5 544.494 2085.67 554.494 2085.5 564.5C2042.17 564.5 1998.83 564.5 1955.5 564.5C1956.49 582.363 1963.82 596.863 1977.5 608C1991.84 615.788 2006.51 616.455 2021.5 610C2030.2 605.127 2036.2 597.961 2039.5 588.5C2053.82 587.334 2068.16 587.167 2082.5 588C2073.26 617.906 2053.26 635.906 2022.5 642C1994.61 647.634 1968.94 642.634 1945.5 627C1926.96 611.098 1916.46 590.931 1914 566.5C1910.34 538.763 1916.34 513.429 1932 490.5C1947.88 471.81 1968.05 461.477 1992.5 459.5ZM1992.5 489.5C2022.36 489.012 2039.36 503.678 2043.5 533.5C2014.51 534.5 1985.51 534.833 1956.5 534.5C1957.52 518.621 1964.19 505.788 1976.5 496C1981.61 492.935 1986.94 490.769 1992.5 489.5Z" fill="white"/>
<path opacity="0.971" fill-rule="evenodd" clip-rule="evenodd" d="M2170.5 459.5C2190.66 458.499 2209.66 462.665 2227.5 472C2241.5 480.825 2250.16 493.325 2253.5 509.5C2239.48 509.833 2225.48 509.499 2211.5 508.5C2203.93 495.295 2192.43 488.962 2177 489.5C2165.77 489.24 2156.1 492.907 2148 500.5C2142.39 510.877 2144.89 518.71 2155.5 524C2177.77 529.92 2200.1 535.587 2222.5 541C2251.38 552.247 2262.21 573.081 2255 603.5C2246.93 623.229 2232.43 635.396 2211.5 640C2189.08 644.935 2166.75 644.601 2144.5 639C2118.76 630.758 2104.09 613.258 2100.5 586.5C2114.5 586.5 2128.5 586.5 2142.5 586.5C2145.47 600.307 2153.8 609.14 2167.5 613C2182.23 615.909 2196.23 613.909 2209.5 607C2217.02 599.657 2218.52 591.157 2214 581.5C2209.35 576.087 2203.51 572.587 2196.5 571C2176.34 566.626 2156.34 561.626 2136.5 556C2107.34 543.532 2098.18 522.366 2109 492.5C2119.53 475.672 2134.7 465.505 2154.5 462C2159.99 461.226 2165.32 460.393 2170.5 459.5Z" fill="white"/>
<path opacity="0.977" fill-rule="evenodd" clip-rule="evenodd" d="M1613.5 463.5C1627.17 463.5 1640.83 463.5 1654.5 463.5C1654.33 498.168 1654.5 532.835 1655 567.5C1653.89 583.524 1659.06 597.024 1670.5 608C1679.85 613.192 1689.85 614.859 1700.5 613C1714.05 608.786 1722.22 599.619 1725 585.5C1726.47 544.868 1726.97 504.201 1726.5 463.5C1740.5 463.5 1754.5 463.5 1768.5 463.5C1768.5 522.5 1768.5 581.5 1768.5 640.5C1754.83 640.5 1741.17 640.5 1727.5 640.5C1727.67 626.829 1727.5 613.163 1727 599.5C1717.48 632.355 1695.64 646.855 1661.5 643C1638.44 638.609 1623.61 625.109 1617 602.5C1615.74 597.552 1614.74 592.552 1614 587.5C1613.5 546.168 1613.33 504.835 1613.5 463.5Z" fill="white"/>
</svg>
