<svg width="272" height="68" viewBox="0 0 272 68" fill="none" xmlns="http://www.w3.org/2000/svg">
<path opacity="0.998" fill-rule="evenodd" clip-rule="evenodd" d="M18.7588 0C19.6268 0 20.495 0 21.363 0C27.711 0.125916 33.9504 1.03421 40.0811 2.72488C40.1286 8.93379 40.1353 15.1427 40.1014 21.3517C39.7958 31.5781 35.3401 39.3799 26.7343 44.7572C24.6072 46.0574 22.3827 47.1758 20.0609 48.1124C16.4279 46.6504 13.0777 44.7324 10.0101 42.3577C4.51399 37.8575 1.29256 32.062 0.345878 24.9713C0.173153 23.6414 0.0578608 22.3128 0 20.9856C0 14.8987 0 8.81182 0 2.72488C6.14478 1.03801 12.3977 0.129715 18.7588 0Z" fill="black"/>
<path fill-rule="evenodd" clip-rule="evenodd" d="M25.5132 5.69355C25.5247 5.72564 25.545 5.75277 25.5742 5.77489C25.5945 5.61278 25.6013 5.4501 25.5946 5.28685C25.6274 5.10603 25.7087 4.95015 25.8387 4.81915C26.3688 4.41965 26.9657 4.27055 27.6291 4.37178C27.675 4.52405 27.6818 4.67994 27.6495 4.83948C26.5468 6.02505 25.7059 7.3807 25.1266 8.90647C24.7964 9.08806 24.4776 9.28462 24.1704 9.49618C24.3516 9.81085 24.5279 10.1294 24.6994 10.4519C24.6048 10.8427 24.5234 11.2358 24.4552 11.6314C21.9056 12.1378 19.342 12.2124 16.7645 11.855C16.3861 11.7992 16.0131 11.7246 15.6455 11.6314C15.5749 11.2114 15.5207 10.7912 15.4827 10.3706C15.6369 10.0691 15.8064 9.77766 15.9914 9.49618C15.6726 9.28938 15.3471 9.09282 15.0148 8.90647C14.4234 7.38416 13.5756 6.02851 12.4716 4.83948C12.4469 4.6753 12.4537 4.51262 12.4919 4.35145C13.0494 4.30968 13.5784 4.41135 14.0789 4.65647C14.4718 4.90655 14.6414 5.26583 14.5875 5.73422C15.1794 5.42407 15.783 5.41049 16.3983 5.69355C16.3104 6.34496 15.9442 6.77199 15.2996 6.97465C15.1202 6.99629 14.9439 6.99629 14.7706 6.97465C15.1277 7.78044 15.711 8.01088 16.5204 7.66604C16.9041 7.38001 17.0872 6.99364 17.0697 6.50695C17.2307 6.43704 17.4003 6.40991 17.5783 6.42561C17.7686 7.10402 18.2162 7.3955 18.9212 7.30001C19.4147 7.16613 19.6995 6.84752 19.7757 6.34427C19.8293 6.07947 19.8293 5.80832 19.7757 5.53087C19.751 5.53592 19.7374 5.54946 19.735 5.57154C19.4778 5.79681 19.1794 5.87136 18.8398 5.79523C18.3772 5.67944 17.9839 5.44896 17.6597 5.10384C18.1186 4.58953 18.6883 4.34551 19.3688 4.37178C19.1247 4.07641 19.0637 3.74427 19.1857 3.37537C19.359 2.88356 19.6507 2.47687 20.0605 2.15527C20.7037 2.61401 21.0089 3.23762 20.9761 4.02609C20.9268 4.15863 20.8522 4.27385 20.7523 4.37178C21.436 4.33522 22.0057 4.57245 22.4613 5.0835C22.0138 5.61002 21.4442 5.84724 20.7523 5.79523C20.5987 5.74227 20.4698 5.65414 20.3657 5.53087C20.3386 5.8291 20.3386 6.12738 20.3657 6.42561C20.5684 7.10008 21.0228 7.39156 21.7289 7.30001C22.1994 7.1619 22.4978 6.85687 22.6241 6.38494C22.781 6.44607 22.9438 6.47319 23.1124 6.46628C23.0362 7.18882 23.3482 7.64298 24.0483 7.82872C24.6777 7.85731 25.1118 7.57941 25.3504 6.99499C24.7267 7.03915 24.2452 6.79514 23.9059 6.26293C23.8273 6.08833 23.7527 5.91211 23.6821 5.73422C24.2864 5.42786 24.8968 5.41431 25.5132 5.69355Z" fill="#FDFDFD"/>
<path opacity="0.949" fill-rule="evenodd" clip-rule="evenodd" d="M172.939 2.76562C173.346 2.76562 173.753 2.76562 174.16 2.76562C174.16 16.7561 174.16 30.7465 174.16 44.7369C173.753 44.7369 173.346 44.7369 172.939 44.7369C172.939 30.7465 172.939 16.7561 172.939 2.76562Z" fill="white"/>
<path opacity="0.981" fill-rule="evenodd" clip-rule="evenodd" d="M156.457 3.09091C156.797 3.08415 157.136 3.09093 157.475 3.11125C158.479 3.3105 158.92 3.91377 158.797 4.92106C158.439 5.60931 157.89 5.81946 157.149 5.55144C156.631 5.26769 156.421 4.82711 156.518 4.22967C156.238 4.46332 156.062 4.76155 155.989 5.12441C155.95 5.31242 155.923 5.50223 155.908 5.69379C155.888 6.52064 155.881 7.34758 155.888 8.17465C156.702 8.17465 157.515 8.17465 158.329 8.17465C158.329 8.59489 158.329 9.01517 158.329 9.43541C157.529 9.43541 156.729 9.43541 155.928 9.43541C155.914 11.8218 155.934 14.2077 155.989 16.5933C156.496 16.7094 157.004 16.8178 157.515 16.9187C157.556 17.2021 157.569 17.4867 157.556 17.7727C155.725 17.7727 153.894 17.7727 152.063 17.7727C152.049 17.4867 152.063 17.2021 152.103 16.9187C152.533 16.8112 152.967 16.7298 153.406 16.6746C153.444 14.2619 153.458 11.8488 153.446 9.43541C152.958 9.43541 152.47 9.43541 151.981 9.43541C151.968 9.07272 151.982 8.71348 152.022 8.35766C152.51 8.2947 152.999 8.2337 153.487 8.17465C153.466 7.1873 153.609 6.22481 153.914 5.28709C154.358 4.07665 155.206 3.34459 156.457 3.09091Z" fill="white"/>
<path opacity="0.973" fill-rule="evenodd" clip-rule="evenodd" d="M74.302 3.17247C74.9287 3.08521 75.4511 3.27501 75.8686 3.74184C76.1877 4.26803 76.2149 4.81028 75.95 5.36864C75.4365 6.02757 74.7789 6.22413 73.9765 5.95835C73.2864 5.64283 72.9946 5.10733 73.1016 4.35189C73.2538 3.70476 73.6542 3.31162 74.302 3.17247Z" fill="white"/>
<path opacity="0.975" fill-rule="evenodd" clip-rule="evenodd" d="M116.58 3.17185C117.851 3.10636 118.441 3.70285 118.35 4.96133C118.195 5.56507 117.808 5.92435 117.191 6.03908C116.578 6.13754 116.055 5.96811 115.624 5.5307C115.176 4.81211 115.237 4.14106 115.807 3.51755C116.042 3.34254 116.3 3.22731 116.58 3.17185Z" fill="white"/>
<path opacity="0.98" fill-rule="evenodd" clip-rule="evenodd" d="M46.5098 4.47363C48.5443 4.47363 50.5789 4.47363 52.6135 4.47363C52.6135 4.81253 52.6135 5.15148 52.6135 5.49038C52.0031 5.54459 51.3927 5.59885 50.7824 5.65306C50.7453 7.97116 50.7388 10.2893 50.762 12.6076C50.7584 13.5381 50.9618 14.4193 51.3724 15.2511C51.9575 16.0994 52.7714 16.5061 53.8139 16.4712C55.363 16.4549 56.3262 15.6957 56.703 14.1937C56.8617 13.5254 56.9431 12.8476 56.9471 12.1602C56.9675 10.0048 56.9744 7.84927 56.9675 5.69373C56.3184 5.60808 55.6674 5.54032 55.0143 5.49038C55.0143 5.15148 55.0143 4.81253 55.0143 4.47363C56.6285 4.47363 58.2423 4.47363 59.8566 4.47363C59.8566 4.81253 59.8566 5.15148 59.8566 5.49038C59.2865 5.54162 58.7168 5.59584 58.1475 5.65306C58.1544 8.09329 58.1475 10.5335 58.1272 12.9736C57.9188 16.6389 55.986 18.3402 52.3286 18.0777C50.0133 17.8325 48.6501 16.5649 48.2392 14.2751C48.1679 13.8715 48.1273 13.4648 48.1171 13.055C48.1098 10.573 48.0894 8.09211 48.056 5.61239C47.5409 5.56635 47.0257 5.52568 46.5098 5.49038C46.5098 5.15148 46.5098 4.81253 46.5098 4.47363Z" fill="white"/>
<path opacity="0.878" fill-rule="evenodd" clip-rule="evenodd" d="M25.5951 5.28711C25.6018 5.45036 25.595 5.61304 25.5747 5.77515C25.5455 5.75302 25.5252 5.7259 25.5137 5.69381C25.5408 5.55826 25.5679 5.42266 25.5951 5.28711Z" fill="#81878D"/>
<path opacity="0.981" fill-rule="evenodd" clip-rule="evenodd" d="M121.788 5.40918C122.344 5.40918 122.9 5.40918 123.456 5.40918C123.455 6.32755 123.428 7.24262 123.375 8.1544C124.175 8.17473 124.975 8.18152 125.776 8.17473C125.776 8.59497 125.776 9.01525 125.776 9.4355C124.975 9.4355 124.175 9.4355 123.375 9.4355C123.368 11.5097 123.375 13.5839 123.395 15.658C123.509 16.4634 123.964 16.7955 124.758 16.6544C125.083 16.5566 125.374 16.4007 125.633 16.1867C125.81 16.3568 125.98 16.533 126.142 16.7154C125.509 17.652 124.62 18.0994 123.477 18.0575C122.666 18.1039 121.974 17.8463 121.401 17.2848C121.113 16.8845 120.95 16.4371 120.913 15.9427C120.906 15.6038 120.9 15.2648 120.893 14.9259C120.927 13.0959 120.941 11.2658 120.933 9.4355C120.432 9.4355 119.929 9.4355 119.428 9.4355C119.428 9.06947 119.428 8.70344 119.428 8.33741C119.944 8.28312 120.459 8.22211 120.974 8.1544C121.007 8.14187 121.034 8.12153 121.055 8.09339C121.325 7.20488 121.569 6.31014 121.788 5.40918Z" fill="white"/>
<path fill-rule="evenodd" clip-rule="evenodd" d="M19.7363 5.57192C19.7388 5.54984 19.7523 5.53629 19.777 5.53125C19.8307 5.8087 19.8307 6.07985 19.777 6.34465C19.7902 6.0794 19.7766 5.82184 19.7363 5.57192Z" fill="#585F68"/>
<path fill-rule="evenodd" clip-rule="evenodd" d="M20.0205 7.80859C20.0784 7.81709 20.1326 7.83743 20.1833 7.8696C20.4564 8.12891 20.7141 8.40006 20.9564 8.683C20.6796 9.00722 20.3811 9.31224 20.0612 9.59807C19.7492 9.31338 19.4509 9.01515 19.166 8.70333C19.4517 8.40424 19.7366 8.10601 20.0205 7.80859Z" fill="#16212C"/>
<path opacity="0.982" fill-rule="evenodd" clip-rule="evenodd" d="M63.1932 7.88965C63.3677 7.92263 63.5036 8.01072 63.6001 8.154C63.655 8.63435 63.7022 9.11564 63.7425 9.59778C64.7366 8.38594 66.0184 7.82336 67.5878 7.90998C68.7248 8.07539 69.423 8.71931 69.6835 9.8418C69.7685 10.2033 69.823 10.5693 69.8462 10.9399C69.8666 12.8513 69.8735 14.7628 69.8666 16.6743C70.2621 16.7453 70.6552 16.8266 71.0466 16.9184C71.0873 17.2017 71.1007 17.4864 71.0873 17.7724C69.4324 17.7724 67.7779 17.7724 66.123 17.7724C66.1095 17.4864 66.123 17.2017 66.1636 16.9184C66.5417 16.8319 66.9217 16.7506 67.303 16.6743C67.3498 16.6614 67.3836 16.6343 67.4047 16.593C67.432 14.7764 67.432 12.9598 67.4047 11.1432C67.3714 9.91696 66.7541 9.42213 65.5533 9.65879C64.927 9.82261 64.3708 10.1141 63.8849 10.5332C63.8308 12.5802 63.8308 14.6273 63.8849 16.6743C64.2511 16.7557 64.6174 16.837 64.9836 16.9184C65.0243 17.2017 65.0377 17.4864 65.0243 17.7724C63.3694 17.7724 61.7148 17.7724 60.0599 17.7724C60.0465 17.4864 60.0599 17.2017 60.1006 16.9184C60.5173 16.8161 60.9376 16.7348 61.362 16.6743C61.3718 14.4915 61.3584 12.3088 61.3214 10.1265C60.8485 10.057 60.3737 10.0028 59.8972 9.96381C59.8845 9.68229 59.898 9.40436 59.9378 9.13008C61.0316 8.72741 62.1169 8.31396 63.1932 7.88965Z" fill="white"/>
<path opacity="0.98" fill-rule="evenodd" clip-rule="evenodd" d="M75.4842 7.89014C75.6205 7.9108 75.7426 7.96505 75.8504 8.05282C75.8638 8.29684 75.8777 8.54085 75.8911 8.78487C75.8533 11.4147 75.8394 14.0447 75.8504 16.6748C76.2459 16.7458 76.639 16.8271 77.0305 16.9188C77.0712 17.2022 77.0846 17.4869 77.0712 17.7729C75.4028 17.7729 73.7345 17.7729 72.0661 17.7729C72.0661 17.4882 72.0661 17.2035 72.0661 16.9188C72.5117 16.8271 72.9593 16.7457 73.4089 16.6748C73.4195 14.4919 73.4061 12.3093 73.3682 10.127C72.8954 10.0575 72.4205 10.0033 71.944 9.9643C71.9314 9.68278 71.9448 9.40484 71.9847 9.13057C73.1599 8.72785 74.3265 8.3144 75.4842 7.89014Z" fill="white"/>
<path opacity="0.977" fill-rule="evenodd" clip-rule="evenodd" d="M91.7979 7.88982C92.8734 7.78879 93.8634 8.02602 94.7684 8.60154C95.8154 9.46805 96.3171 10.5865 96.274 11.9568C96.2769 12.2995 96.2431 12.6384 96.1723 12.9735C94.1397 13.0546 92.0983 13.0817 90.0482 13.0549C90.0462 14.1004 90.399 15.0019 91.1062 15.7594C91.9322 16.3943 92.8547 16.5841 93.8732 16.3288C94.5642 16.1055 95.1473 15.7191 95.6229 15.1697C95.8 15.34 95.9831 15.5026 96.1723 15.6578C96.1995 15.712 96.1995 15.7662 96.1723 15.8204C95.2913 17.3288 93.9688 18.0744 92.2049 18.0573C90.4209 18.0846 89.0578 17.3526 88.1154 15.8611C87.1957 13.9484 87.2226 12.0505 88.1968 10.1673C89.0484 8.85719 90.2488 8.09805 91.7979 7.88982ZM92.1642 8.86589C93.2079 9.00742 93.7979 9.60389 93.9342 10.6554C94.0116 11.0838 93.9233 11.4701 93.6698 11.8145C93.4394 11.9772 93.1815 12.0585 92.8966 12.0585C91.9473 12.0788 90.998 12.0856 90.0482 12.0788C90.0824 11.1416 90.3603 10.2875 90.8824 9.51661C91.2336 9.14111 91.6608 8.92421 92.1642 8.86589Z" fill="white"/>
<path opacity="0.977" fill-rule="evenodd" clip-rule="evenodd" d="M100.426 7.89014C100.621 7.9097 100.764 8.00458 100.853 8.17483C100.906 8.89493 100.974 9.6134 101.056 10.3303C101.336 9.54947 101.791 8.89196 102.419 8.35784C103.125 7.87883 103.884 7.7704 104.698 8.03248C105.359 8.44048 105.569 9.01661 105.329 9.76095C105.055 10.2949 104.614 10.5661 104.006 10.5743C103.327 10.5521 102.873 10.2268 102.643 9.59827C101.894 10.2415 101.378 11.0413 101.097 11.9978C101.063 13.5299 101.07 15.0618 101.117 16.5935C101.659 16.7072 102.201 16.8156 102.745 16.9188C102.745 17.2035 102.745 17.4882 102.745 17.7729C100.927 17.7729 99.11 17.7729 97.2923 17.7729C97.2923 17.4882 97.2923 17.2035 97.2923 16.9188C97.7265 16.8375 98.1603 16.7562 98.5945 16.6748C98.605 14.4919 98.5916 12.3093 98.5538 10.127C98.0809 10.0561 97.6065 10.0018 97.1296 9.9643C97.117 9.68278 97.1304 9.40484 97.1703 9.13057C98.2641 8.7279 99.3493 8.31445 100.426 7.89014Z" fill="white"/>
<path opacity="0.975" fill-rule="evenodd" clip-rule="evenodd" d="M109.421 7.88961C110.695 7.79026 111.882 8.0614 112.982 8.70301C112.972 9.40949 112.938 10.1145 112.88 10.8178C112.433 10.8585 111.986 10.872 111.537 10.8585C111.422 10.3168 111.307 9.77454 111.191 9.23172C111.047 9.11085 110.877 9.03626 110.683 9.00803C110.034 8.8506 109.41 8.91836 108.811 9.21138C108.333 9.57469 108.19 10.0424 108.384 10.6145C108.461 10.7747 108.562 10.9171 108.689 11.0415C108.92 11.1977 109.164 11.3333 109.421 11.4482C110.026 11.6678 110.636 11.8712 111.252 12.0583C112.018 12.3286 112.649 12.7828 113.145 13.4207C113.731 14.4946 113.703 15.552 113.063 16.593C112.428 17.3685 111.607 17.8226 110.601 17.9554C109.009 18.2374 107.51 17.9867 106.105 17.203C106.085 16.4169 106.078 15.6306 106.085 14.8442C106.546 14.8442 107.007 14.8442 107.468 14.8442C107.57 15.4562 107.685 16.0662 107.814 16.6743C108.121 16.8478 108.454 16.9495 108.811 16.9793C109.318 17.0234 109.819 16.9962 110.317 16.898C111.262 16.5874 111.554 15.9706 111.191 15.0475C110.923 14.7265 110.591 14.4892 110.194 14.3358C109.405 14.0591 108.618 13.7744 107.834 13.4817C106.234 12.5706 105.794 11.2624 106.512 9.55708C106.88 8.95894 107.389 8.51833 108.038 8.23531C108.492 8.06766 108.953 7.95241 109.421 7.88961Z" fill="white"/>
<path opacity="0.985" fill-rule="evenodd" clip-rule="evenodd" d="M117.721 7.89014C117.908 7.91576 118.057 8.00385 118.168 8.15449C118.135 8.8107 118.115 9.46821 118.107 10.127C118.08 12.2689 118.08 14.4109 118.107 16.5528C118.12 16.6163 118.154 16.6638 118.209 16.6952C118.588 16.7724 118.969 16.847 119.348 16.9188C119.348 17.2035 119.348 17.4882 119.348 17.7729C117.68 17.7729 116.011 17.7729 114.343 17.7729C114.33 17.4869 114.343 17.2022 114.384 16.9188C114.8 16.8166 115.221 16.7353 115.645 16.6748C115.71 14.4914 115.696 12.3088 115.605 10.127C115.132 10.0561 114.657 10.0018 114.18 9.9643C114.168 9.68278 114.181 9.40484 114.221 9.13057C115.396 8.72785 116.563 8.3144 117.721 7.89014Z" fill="white"/>
<path opacity="0.98" fill-rule="evenodd" clip-rule="evenodd" d="M146.001 7.89002C147.743 7.7613 149.187 8.34422 150.335 9.63882C151.06 10.6345 151.419 11.7529 151.413 12.9941C151.432 14.5261 150.903 15.8276 149.826 16.8984C148.475 17.9543 146.956 18.2932 145.269 17.9151C143.188 17.3178 142.015 15.9418 141.749 13.7872C141.544 12.2873 141.87 10.9181 142.725 9.67949C143.575 8.64156 144.667 8.04505 146.001 7.89002ZM146.245 8.90677C147.152 8.83446 147.81 9.20048 148.219 10.0049C148.506 10.6803 148.669 11.3853 148.707 12.1197C148.759 13.0327 148.719 13.941 148.585 14.8446C148.475 15.5731 148.156 16.19 147.629 16.695C146.849 17.1768 146.089 17.1497 145.35 16.6137C144.901 16.109 144.623 15.5193 144.516 14.8446C144.326 13.6109 144.326 12.3772 144.516 11.1436C144.618 10.3771 144.95 9.73318 145.513 9.21179C145.746 9.07445 145.99 8.97277 146.245 8.90677Z" fill="white"/>
<path opacity="0.977" fill-rule="evenodd" clip-rule="evenodd" d="M77.0684 8.17432C78.8315 8.17432 80.5951 8.17432 82.3583 8.17432C82.3583 8.47255 82.3583 8.77082 82.3583 9.06905C81.85 9.11257 81.3483 9.19391 80.8527 9.31307C81.5558 11.1916 82.2748 13.0624 83.0093 14.9255C83.6522 13.0775 84.2899 11.227 84.9218 9.37408C84.9161 9.34268 84.9023 9.31555 84.8811 9.29274C84.4343 9.20701 83.9867 9.12567 83.5383 9.04872C83.4984 8.76082 83.485 8.46938 83.4976 8.17432C84.7863 8.17432 86.0746 8.17432 87.3633 8.17432C87.3702 8.45933 87.3633 8.74402 87.343 9.02838C87.0003 9.11725 86.6545 9.19859 86.3053 9.2724C86.23 9.30042 86.1824 9.35464 86.1629 9.43508C85.0858 12.238 84.0209 15.0442 82.9686 17.8537C82.5475 17.8672 82.1267 17.8537 81.7072 17.8131C80.5137 14.9662 79.3198 12.1193 78.1263 9.2724C77.7853 9.16129 77.4325 9.0935 77.0684 9.06905C77.0684 8.77082 77.0684 8.47255 77.0684 8.17432Z" fill="white"/>
<path opacity="0.976" fill-rule="evenodd" clip-rule="evenodd" d="M126.795 8.17432C128.545 8.17432 130.294 8.17432 132.044 8.17432C132.044 8.45901 132.044 8.74369 132.044 9.02838C131.523 9.06979 131.007 9.14433 130.498 9.25207C131.229 11.2419 131.968 13.228 132.716 15.2102C133.42 13.2204 134.132 11.2344 134.852 9.25207C134.352 9.15979 133.85 9.08524 133.346 9.02838C133.346 8.74369 133.346 8.45901 133.346 8.17432C134.635 8.17432 135.923 8.17432 137.212 8.17432C137.212 8.45901 137.212 8.74369 137.212 9.02838C136.858 9.08142 136.506 9.14242 136.154 9.2114C136.116 9.22718 136.089 9.2543 136.073 9.29274C134.831 12.526 133.59 15.7592 132.349 18.9925C131.992 19.8957 131.531 20.7362 130.966 21.514C130.566 22.0224 130.057 22.3681 129.44 22.5511C128.987 22.6445 128.54 22.631 128.097 22.5104C127.407 22.1095 127.21 21.5333 127.507 20.782C127.873 20.2435 128.382 20.0334 129.033 20.1516C129.525 20.2774 129.844 20.5824 129.989 21.0667C130.737 20.3112 131.273 19.4233 131.597 18.4028C130.339 15.3306 129.078 12.26 127.812 9.19106C127.478 9.10602 127.139 9.05181 126.795 9.02838C126.795 8.74369 126.795 8.45901 126.795 8.17432Z" fill="white"/>
<path fill-rule="evenodd" clip-rule="evenodd" d="M17.3344 8.45941C17.9173 8.42525 18.1953 8.69635 18.1686 9.27281C17.9419 9.746 17.596 9.86122 17.1309 9.6185C16.7584 9.15454 16.8262 8.76818 17.3344 8.45941Z" fill="#15202B"/>
<path fill-rule="evenodd" clip-rule="evenodd" d="M22.3791 8.45947C23.0944 8.46203 23.3453 8.80094 23.1319 9.47622C22.8503 9.78564 22.5315 9.83306 22.1756 9.61856C21.8034 9.15224 21.8712 8.76588 22.3791 8.45947Z" fill="#15202B"/>
<path fill-rule="evenodd" clip-rule="evenodd" d="M10.4581 9.27246C11.2465 9.96832 12.0399 10.6597 12.8385 11.3466C12.8847 11.6421 12.9458 11.9336 13.0216 12.221C15.3739 13.9145 17.7204 15.6159 20.0612 17.3251C22.4182 15.6219 24.7715 13.9138 27.1212 12.2007C27.1755 11.9282 27.2298 11.6571 27.284 11.3873C28.0707 10.6824 28.8574 9.97739 29.6441 9.27246C29.6182 9.61917 29.5708 9.96487 29.5017 10.3095C29.5152 10.357 29.5288 10.4044 29.5424 10.4519C29.8168 10.2436 30.0949 10.0402 30.3765 9.84184C30.4733 9.98776 30.575 10.1301 30.6817 10.2689C30.4042 10.4956 30.1194 10.7125 29.8272 10.9196C30.2194 11.003 30.6127 11.0776 31.0072 11.1433C30.0955 11.7018 29.1732 12.244 28.2402 12.7701C28.0257 12.7191 27.8086 12.6784 27.5892 12.6481C27.5023 12.6487 27.4209 12.669 27.345 12.7091C24.934 14.4798 22.5128 16.2354 20.0816 17.9758C17.6232 16.2218 15.175 14.4527 12.7368 12.6684C12.4112 12.6819 12.0857 12.6955 11.7602 12.7091C10.8785 12.1871 9.9969 11.6652 9.11523 11.1433C9.50958 11.0767 9.90294 11.0021 10.2953 10.9196C10.0178 10.6928 9.73293 10.4759 9.44077 10.2689C9.54384 10.1254 9.65912 9.99663 9.78664 9.88251C10.0575 10.0717 10.3288 10.2615 10.6005 10.4519C10.5832 10.0559 10.5357 9.66273 10.4581 9.27246Z" fill="#FCFCFC"/>
<path fill-rule="evenodd" clip-rule="evenodd" d="M19.0829 10.6143C20.7371 10.5729 22.3783 10.6949 24.0066 10.9803C24.0163 11.0603 24.0027 11.1349 23.9659 11.204C21.3613 11.6623 18.757 11.6623 16.1531 11.204C16.1162 11.1349 16.1027 11.0603 16.1124 10.9803C17.1012 10.8022 18.0914 10.6802 19.0829 10.6143Z" fill="#16212C"/>
<path fill-rule="evenodd" clip-rule="evenodd" d="M8.50656 12.1196C9.29495 12.8155 10.0884 13.5069 10.887 14.1938C10.9277 14.4649 10.9684 14.736 11.0091 15.0072C11.941 15.7067 12.8837 16.3913 13.8371 17.061C13.5252 17.0881 13.2132 17.0881 12.9012 17.061C12.1959 16.5459 11.4906 16.0307 10.7853 15.5156C10.7294 15.48 10.6684 15.4596 10.6022 15.4546C10.3522 15.5101 10.1013 15.5439 9.84938 15.5562C8.93394 15.0378 8.02514 14.5091 7.12305 13.9701C7.51889 13.8853 7.91226 13.804 8.3031 13.7261C8.04223 13.5246 7.77773 13.328 7.50962 13.1364C7.55067 12.9608 7.64565 12.8116 7.79446 12.689C8.07885 12.8917 8.36369 13.0951 8.64898 13.2991C8.61077 12.9068 8.56332 12.5136 8.50656 12.1196Z" fill="#FCFCFC"/>
<path fill-rule="evenodd" clip-rule="evenodd" d="M31.6161 12.0791C31.6404 12.0887 31.6539 12.109 31.6568 12.1401C31.5635 12.5272 31.5092 12.9136 31.494 13.2992C31.7675 13.0801 32.0524 12.8767 32.3485 12.6891C32.4712 12.812 32.5798 12.9476 32.674 13.0958C32.3949 13.3138 32.1101 13.5239 31.8195 13.7262C32.1519 13.8104 32.491 13.8782 32.8368 13.9296C32.891 13.9431 32.9453 13.9567 32.9996 13.9703C32.1044 14.499 31.2091 15.0277 30.3139 15.5564C30.0264 15.5519 29.7416 15.5179 29.4594 15.4547C28.7134 15.9902 27.9674 16.5257 27.2214 17.0612C26.923 17.0883 26.6246 17.0883 26.3262 17.0612C27.2553 16.3766 28.1844 15.6919 29.1135 15.0073C29.1417 14.73 29.1959 14.4589 29.2763 14.1939C30.0642 13.4945 30.8441 12.7895 31.6161 12.0791Z" fill="#FCFCFC"/>
<path fill-rule="evenodd" clip-rule="evenodd" d="M6.51079 14.9258C7.2967 15.6163 8.08339 16.3077 8.87089 16.9999C8.92391 17.2958 8.99171 17.5873 9.07435 17.8743C9.55585 18.22 10.0374 18.5657 10.5189 18.9114C10.546 19.1419 10.546 19.3723 10.5189 19.6028C9.94604 19.1708 9.36961 18.7438 8.78951 18.3217C8.46398 18.3353 8.13845 18.3488 7.81291 18.3624C6.93125 17.8405 6.04963 17.3185 5.16797 16.7966C5.55792 16.7045 5.95124 16.63 6.34802 16.5729C6.04682 16.3684 5.76198 16.1447 5.4935 15.9019C5.58742 15.7605 5.68915 15.625 5.79869 15.4952C6.08353 15.6985 6.36837 15.9019 6.65321 16.1052C6.62261 15.7114 6.57516 15.3183 6.51079 14.9258Z" fill="#FCFCFC"/>
<path fill-rule="evenodd" clip-rule="evenodd" d="M33.5705 14.9263C33.5965 14.9505 33.6101 14.9844 33.6112 15.0279C33.5675 15.355 33.5132 15.6803 33.4485 16.004C33.462 16.0379 33.4756 16.0718 33.4892 16.1057C33.7636 15.8974 34.0417 15.694 34.3233 15.4956C34.4329 15.6255 34.5346 15.761 34.6285 15.9023C34.36 16.1452 34.0752 16.3689 33.774 16.5734C34.1798 16.6464 34.5867 16.7142 34.9947 16.7767C34.0995 17.3055 33.2043 17.8342 32.3091 18.3629C32.0507 18.3662 31.793 18.3459 31.536 18.3019C31.4491 18.3025 31.3677 18.3228 31.2918 18.3629C30.7326 18.7813 30.1696 19.1948 29.6031 19.6033C29.5693 19.3716 29.5761 19.1412 29.6235 18.9119C30.1294 18.5608 30.6245 18.1947 31.1087 17.8138C31.1363 17.5385 31.1838 17.2673 31.2511 17.0004C32.0382 16.3221 32.8114 15.6307 33.5705 14.9263Z" fill="#FCFCFC"/>
<path opacity="0.991" fill-rule="evenodd" clip-rule="evenodd" d="M271.332 41.1985C271.332 41.2119 271.332 41.2257 271.332 41.2391C268.703 44.2373 265.393 45.505 261.403 45.0418C256.782 44.3971 253.615 41.9098 251.902 37.5788C250.997 35.0088 250.671 32.3652 250.925 29.6482C251.124 26.9243 251.992 24.4434 253.53 22.2056C255.912 19.0762 259.086 17.4901 263.051 17.4473C266.114 17.4976 268.698 18.6227 270.803 20.8229C269.985 21.8641 269.144 22.8877 268.28 23.8934C268.253 23.9206 268.226 23.9206 268.199 23.8934C265.932 21.5694 263.287 21.0136 260.264 22.226C258.95 22.8886 257.926 23.8579 257.192 25.1339C256.187 27.0482 255.706 29.0884 255.747 31.2547C255.731 33.117 256.063 34.9133 256.744 36.6434C258.292 40.0033 260.904 41.3929 264.577 40.8121C265.799 40.5136 266.884 39.9578 267.833 39.1446C268.165 38.8595 268.477 38.5545 268.768 38.2296C269.633 39.2129 270.487 40.2025 271.332 41.1985Z" fill="white"/>
<path fill-rule="evenodd" clip-rule="evenodd" d="M19.775 18.9929C19.7885 21.9823 19.7749 24.9647 19.7343 27.9403C19.3349 27.5288 18.8466 27.2916 18.2694 27.2286C16.3027 27.2082 14.3359 27.2015 12.3691 27.2082C12.3691 23.9953 12.3691 20.7824 12.3691 17.5695C14.4186 17.5503 16.4668 17.5706 18.5136 17.6305C19.1963 17.8451 19.6168 18.2992 19.775 18.9929Z" fill="#FEFEFE"/>
<path fill-rule="evenodd" clip-rule="evenodd" d="M21.8529 17.6099C23.8196 17.6099 25.7864 17.6099 27.7531 17.6099C27.7531 20.8092 27.7531 24.0086 27.7531 27.2079C25.7592 27.2012 23.7653 27.2079 21.7715 27.2283C21.1933 27.3184 20.7118 27.5828 20.327 28.0213C20.2872 24.97 20.3007 21.9198 20.3676 18.8706C20.5969 18.1328 21.092 17.7126 21.8529 17.6099Z" fill="#FEFEFE"/>
<path fill-rule="evenodd" clip-rule="evenodd" d="M21.8516 17.6102C23.825 17.5695 25.8053 17.556 27.7925 17.5695C27.8061 20.7893 27.7925 24.0022 27.7518 27.2083C27.7518 24.0089 27.7518 20.8096 27.7518 17.6102C25.7851 17.6102 23.8183 17.6102 21.8516 17.6102Z" fill="#616971"/>
<path fill-rule="evenodd" clip-rule="evenodd" d="M4.51665 17.7324C5.31538 18.4289 6.10886 19.1339 6.8971 19.8473C6.96009 20.1166 7.01437 20.3877 7.05986 20.6607C8.21277 21.5012 9.36573 22.3417 10.5186 23.1822C10.5524 23.4003 10.5456 23.6173 10.4983 23.8329C9.27185 22.9528 8.05111 22.0649 6.83606 21.169C6.78019 21.1334 6.71915 21.1131 6.65295 21.108C6.41303 21.1371 6.17564 21.1778 5.94085 21.23C5.01186 20.7048 4.08951 20.1693 3.17383 19.6236C3.56633 19.5378 3.95968 19.4565 4.35388 19.3796C4.06172 19.1725 3.77688 18.9556 3.49936 18.7288C3.60143 18.5931 3.70994 18.4643 3.82489 18.3425C4.10741 18.5164 4.3787 18.7062 4.63872 18.9118C4.65227 18.8576 4.66586 18.8034 4.67941 18.7492C4.62493 18.4094 4.57068 18.0705 4.51665 17.7324Z" fill="#FCFCFC"/>
<path fill-rule="evenodd" clip-rule="evenodd" d="M35.5644 17.7319C35.5904 17.7562 35.604 17.7901 35.6051 17.8336C35.5125 18.1911 35.4718 18.5503 35.483 18.9114C35.743 18.7057 36.0143 18.5159 36.2969 18.342C36.4245 18.4611 36.533 18.5967 36.6224 18.7487C36.3433 18.9667 36.0584 19.1768 35.7679 19.3791C36.1635 19.4652 36.5568 19.5465 36.9479 19.6231C36.0458 20.162 35.137 20.6907 34.2216 21.2092C33.9726 21.1806 33.7217 21.1467 33.4688 21.1075C33.4026 21.1126 33.3416 21.133 33.2857 21.1685C32.0706 22.0644 30.8499 22.9523 29.6235 23.8324C29.5761 23.6168 29.5694 23.3998 29.6031 23.1817C30.7185 22.3701 31.8376 21.5635 32.9602 20.7618C33.0232 20.7125 33.0706 20.6515 33.1026 20.5788C33.117 20.3304 33.1577 20.0864 33.2246 19.8468C34.0125 19.1473 34.7924 18.4424 35.5644 17.7319Z" fill="#FCFCFC"/>
<path opacity="0.994" fill-rule="evenodd" clip-rule="evenodd" d="M187.953 17.9355C194.667 17.9355 201.381 17.9355 208.095 17.9355C208.095 19.2777 208.095 20.6198 208.095 21.9619C205.532 21.9619 202.968 21.9619 200.405 21.9619C200.405 29.5129 200.405 37.0639 200.405 44.615C198.818 44.615 197.231 44.615 195.644 44.615C195.644 37.0639 195.644 29.5129 195.644 21.9619C193.08 21.9619 190.517 21.9619 187.953 21.9619C187.953 20.6198 187.953 19.2777 187.953 17.9355Z" fill="white"/>
<path opacity="0.992" fill-rule="evenodd" clip-rule="evenodd" d="M210.414 17.9355C215.785 17.9355 221.157 17.9355 226.528 17.9355C226.528 19.2777 226.528 20.6198 226.528 21.9619C222.757 21.9619 218.987 21.9619 215.216 21.9619C215.216 24.2258 215.216 26.4898 215.216 28.7537C218.403 28.7537 221.591 28.7537 224.778 28.7537C224.778 30.0958 224.778 31.4379 224.778 32.78C221.591 32.78 218.403 32.78 215.216 32.78C215.216 35.3965 215.216 38.0129 215.216 40.6293C219.122 40.6293 223.028 40.6293 226.935 40.6293C226.935 41.958 226.935 43.2863 226.935 44.615C221.428 44.615 215.921 44.615 210.414 44.615C210.414 35.7218 210.414 26.8287 210.414 17.9355Z" fill="white"/>
<path opacity="0.99" fill-rule="evenodd" clip-rule="evenodd" d="M230.111 17.9352C233.489 17.9284 236.866 17.9352 240.244 17.9555C242.106 17.9969 243.87 18.4307 245.533 19.2569C247.496 20.4081 248.615 22.123 248.89 24.4017C249.132 26.1195 248.942 27.787 248.321 29.4041C247.358 31.4417 245.804 32.8177 243.662 33.5321C245.783 37.2093 247.899 40.89 250.009 44.5739C248.219 44.628 246.429 44.628 244.638 44.5739C242.739 41.1304 240.84 37.6872 238.941 34.2438C237.599 34.2031 236.256 34.1896 234.913 34.2031C234.913 37.6736 234.913 41.1442 234.913 44.6146C233.313 44.6146 231.712 44.6146 230.111 44.6146C230.111 35.7214 230.111 26.8283 230.111 17.9352ZM234.913 21.7581C236.459 21.7513 238.005 21.7581 239.552 21.7785C240.418 21.8099 241.26 21.9725 242.075 22.2665C243.216 22.7291 243.914 23.5628 244.17 24.7677C244.418 26.0272 244.241 27.2202 243.641 28.3466C242.951 29.3059 242.022 29.9092 240.854 30.1565C240.398 30.2584 239.937 30.3262 239.47 30.3598C237.951 30.3801 236.432 30.3869 234.913 30.3801C234.913 27.5061 234.913 24.6321 234.913 21.7581Z" fill="white"/>
<path fill-rule="evenodd" clip-rule="evenodd" d="M11.8395 28.2253C14.1414 28.2526 16.4473 28.2797 18.7571 28.3067C18.9838 29.2037 19.5535 29.563 20.4661 29.3844C21.0007 29.1889 21.3127 28.8093 21.402 28.2457C23.6943 28.2253 25.9866 28.2185 28.2789 28.2253C28.2789 24.9989 28.2789 21.7724 28.2789 18.5459C28.4552 18.5459 28.6316 18.5459 28.8079 18.5459C28.8079 21.9622 28.8079 25.3784 28.8079 28.7947C26.4749 28.7879 24.1419 28.7947 21.8089 28.815C21.3264 29.7814 20.5532 30.1474 19.4895 29.9131C18.9441 29.7273 18.5644 29.368 18.3502 28.8354C16.0038 28.7947 13.6573 28.7812 11.3105 28.7947C11.3105 25.3784 11.3105 21.9622 11.3105 18.5459C11.4869 18.5459 11.6632 18.5459 11.8395 18.5459C11.8395 21.7724 11.8395 24.9989 11.8395 28.2253Z" fill="#FBFBFB"/>
<path opacity="0.878" fill-rule="evenodd" clip-rule="evenodd" d="M19.777 18.9927C19.8245 21.9954 19.8312 25.005 19.7974 28.0214C19.7682 27.9993 19.7478 27.9721 19.7363 27.94C19.777 24.9644 19.7906 21.982 19.777 18.9927Z" fill="#DBDCDF"/>
<path fill-rule="evenodd" clip-rule="evenodd" d="M15.0157 21.311C15.1816 21.3139 15.2901 21.3953 15.3413 21.5551C15.2377 21.8071 15.0817 21.8478 14.8733 21.6771C14.819 21.51 14.8665 21.388 15.0157 21.311Z" fill="#1D2732"/>
<path fill-rule="evenodd" clip-rule="evenodd" d="M12.8184 21.5147C13.1035 21.508 13.3884 21.5147 13.6729 21.5351C14.2463 21.5659 14.5447 21.8641 14.5681 22.4298C14.5819 22.9176 14.3513 23.2158 13.8763 23.3245C13.5239 23.3449 13.1713 23.3516 12.8184 23.3449C12.8184 23.2907 12.8184 23.2364 12.8184 23.1822C12.8862 23.1822 12.954 23.1822 13.0218 23.1822C13.0218 22.6942 13.0218 22.2061 13.0218 21.7181C12.954 21.7181 12.8862 21.7181 12.8184 21.7181C12.8184 21.6503 12.8184 21.5825 12.8184 21.5147Z" fill="#17222C"/>
<path fill-rule="evenodd" clip-rule="evenodd" d="M21.0801 21.5142C21.3652 21.5075 21.6501 21.5142 21.9346 21.5346C22.6415 21.6043 22.9331 21.9907 22.8095 22.6937C22.7037 23.0299 22.4799 23.24 22.1381 23.3241C21.7857 23.3444 21.433 23.3511 21.0801 23.3444C21.0801 23.2902 21.0801 23.2359 21.0801 23.1817C21.1479 23.1817 21.2157 23.1817 21.2835 23.1817C21.2835 22.6937 21.2835 22.2056 21.2835 21.7176C21.2157 21.7176 21.1479 21.7176 21.0801 21.7176C21.0801 21.6498 21.0801 21.582 21.0801 21.5142Z" fill="#15202B"/>
<path fill-rule="evenodd" clip-rule="evenodd" d="M13.5098 21.7178C13.9325 21.7477 14.1224 21.9782 14.0794 22.4092C14.1005 22.6289 14.053 22.8323 13.937 23.0192C13.8185 23.1361 13.6761 23.1903 13.5098 23.1819C13.5098 22.6939 13.5098 22.2058 13.5098 21.7178Z" fill="#FAFAFA"/>
<path fill-rule="evenodd" clip-rule="evenodd" d="M21.7695 21.7178C22.2012 21.7502 22.3911 21.9875 22.3392 22.4295C22.3586 22.6424 22.3111 22.839 22.1968 23.0192C22.0733 23.1197 21.9309 23.1739 21.7695 23.1819C21.7695 22.6939 21.7695 22.2058 21.7695 21.7178Z" fill="#FBFBFB"/>
<path fill-rule="evenodd" clip-rule="evenodd" d="M15.9504 21.9615C16.1594 21.953 16.3629 21.9801 16.5608 22.0428C16.5608 22.1648 16.5608 22.2868 16.5608 22.4088C16.4794 22.4088 16.398 22.4088 16.3167 22.4088C16.3385 22.1857 16.2436 22.0976 16.0318 22.1445C15.9463 22.215 15.9327 22.2963 15.9911 22.3885C16.2001 22.4534 16.3968 22.5415 16.5812 22.6529C16.7325 23.153 16.5426 23.397 16.0115 23.3849C15.848 23.3937 15.6988 23.353 15.5639 23.2629C15.5436 23.1416 15.5368 23.0196 15.5435 22.8969C15.6291 22.8847 15.7105 22.8983 15.7877 22.9375C15.8123 23.0274 15.8395 23.1155 15.8691 23.2019C16.0112 23.2427 16.14 23.2224 16.2556 23.1409C16.2846 23.065 16.2642 23.004 16.1946 22.9579C16.0285 22.8981 15.8658 22.8303 15.7063 22.7545C15.4551 22.3892 15.5365 22.1249 15.9504 21.9615Z" fill="#18232E"/>
<path fill-rule="evenodd" clip-rule="evenodd" d="M17.2536 21.9619C17.6132 21.8975 17.8709 22.0263 18.0267 22.3482C17.9267 22.5614 17.7978 22.5817 17.6402 22.4092C17.6132 22.3152 17.5929 22.2203 17.5791 22.1246C17.3976 22.1363 17.2823 22.2312 17.2333 22.4092C17.202 22.5757 17.2156 22.7384 17.2739 22.8973C17.3773 23.0831 17.5334 23.1441 17.7419 23.0803C17.8015 23.0545 17.8558 23.0206 17.9047 22.9786C17.9543 22.9944 17.9814 23.0282 17.986 23.0803C17.9323 23.1882 17.8509 23.2696 17.7419 23.3243C17.1561 23.486 16.817 23.2691 16.7246 22.6736C16.7556 22.3246 16.9319 22.0873 17.2536 21.9619Z" fill="#19232E"/>
<path fill-rule="evenodd" clip-rule="evenodd" d="M19.3679 22.6936C19.0966 22.6936 18.8254 22.6936 18.5541 22.6936C18.5445 22.7461 18.558 22.7868 18.5948 22.8156C18.6561 23.0819 18.8188 23.17 19.0831 23.08C19.1427 23.0542 19.197 23.0202 19.2459 22.9783C19.2935 22.9953 19.3342 23.0224 19.3679 23.0596C19.1706 23.3403 18.8993 23.4419 18.5541 23.3647C18.3303 23.3037 18.1879 23.1613 18.1268 22.9376C18.017 22.2749 18.2951 21.9563 18.961 21.9819C19.2896 22.1028 19.4253 22.3401 19.3679 22.6936Z" fill="#18222D"/>
<path fill-rule="evenodd" clip-rule="evenodd" d="M23.4802 21.9616C24.1814 21.9533 24.4594 22.2923 24.3143 22.9783C24.1784 23.2561 23.9546 23.3917 23.6429 23.385C23.2108 23.3598 22.9802 23.1294 22.9512 22.6936C22.9701 22.3285 23.1465 22.0845 23.4802 21.9616Z" fill="#17222D"/>
<path fill-rule="evenodd" clip-rule="evenodd" d="M24.9841 21.9616C25.2438 21.9199 25.4676 21.9877 25.6555 22.1649C25.7867 22.4236 25.7121 22.5388 25.4317 22.5106C25.3288 22.4032 25.2881 22.2744 25.3096 22.1243C25.0475 22.1632 24.9255 22.3191 24.9434 22.592C24.9677 23.0983 25.1983 23.227 25.6351 22.9783C25.6758 22.9919 25.703 23.019 25.7165 23.0597C25.6702 23.1805 25.5889 23.2686 25.4724 23.324C24.8624 23.5074 24.5234 23.2837 24.4551 22.653C24.4948 22.3154 24.6711 22.0849 24.9841 21.9616Z" fill="#18232E"/>
<path fill-rule="evenodd" clip-rule="evenodd" d="M27.1006 22.694C26.8293 22.694 26.5581 22.694 26.2868 22.694C26.2759 22.7591 26.2895 22.8133 26.3275 22.8567C26.4125 23.0856 26.5752 23.1601 26.8158 23.0804C26.8754 23.0546 26.9297 23.0207 26.9786 22.9787C27.0282 22.9945 27.0553 23.0283 27.0599 23.0804C26.9305 23.3044 26.7338 23.4061 26.4699 23.3854C26.1023 23.3706 25.8853 23.1808 25.8188 22.816C25.8048 22.2201 26.0964 21.9422 26.6937 21.9823C27.0008 22.1143 27.1365 22.3515 27.1006 22.694Z" fill="#18222D"/>
<path fill-rule="evenodd" clip-rule="evenodd" d="M15.2184 21.9614C15.3089 21.9638 15.3496 22.0112 15.3405 22.1038C15.3027 22.4618 15.2891 22.821 15.2998 23.1815C15.3541 23.1815 15.4083 23.1815 15.4626 23.1815C15.4626 23.2357 15.4626 23.29 15.4626 23.3442C15.2184 23.3442 14.9743 23.3442 14.7301 23.3442C14.7301 23.29 14.7301 23.2357 14.7301 23.1815C14.7708 23.1815 14.8115 23.1815 14.8522 23.1815C14.8522 22.8833 14.8522 22.585 14.8522 22.2868C14.798 22.2868 14.7437 22.2868 14.6895 22.2868C14.6895 22.2326 14.6895 22.1783 14.6895 22.1241C14.8755 22.088 15.0518 22.0338 15.2184 21.9614Z" fill="#16212C"/>
<path fill-rule="evenodd" clip-rule="evenodd" d="M18.7196 22.124C18.9168 22.1651 18.9914 22.2871 18.9434 22.4901C18.8328 22.5284 18.7175 22.542 18.5975 22.5307C18.5714 22.3708 18.6121 22.2352 18.7196 22.124Z" fill="#F3F4F4"/>
<path fill-rule="evenodd" clip-rule="evenodd" d="M23.6 22.124C23.7442 22.1392 23.8323 22.2205 23.8645 22.368C23.8972 22.6149 23.8837 22.8589 23.8238 23.1001C23.7707 23.2142 23.6825 23.2481 23.5593 23.2018C23.4615 23.0402 23.4208 22.864 23.4372 22.6731C23.4083 22.4597 23.4625 22.2767 23.6 22.124Z" fill="#F6F6F7"/>
<path fill-rule="evenodd" clip-rule="evenodd" d="M26.4098 22.1243C26.5002 22.1112 26.5748 22.1383 26.6336 22.2056C26.6538 22.3132 26.6606 22.4217 26.6539 22.531C26.5319 22.531 26.4098 22.531 26.2877 22.531C26.2816 22.3807 26.3223 22.2452 26.4098 22.1243Z" fill="#F2F3F3"/>
<path opacity="0.878" fill-rule="evenodd" clip-rule="evenodd" d="M19.3696 22.6934C19.1024 22.7076 18.8447 22.7483 18.5964 22.8154C18.5596 22.7865 18.5461 22.7459 18.5557 22.6934C18.827 22.6934 19.0983 22.6934 19.3696 22.6934Z" fill="#969BA0"/>
<path opacity="0.878" fill-rule="evenodd" clip-rule="evenodd" d="M27.1007 22.6938C26.8506 22.7341 26.5929 22.7477 26.3275 22.7345C26.3275 22.7752 26.3275 22.8159 26.3275 22.8565C26.2895 22.8131 26.2759 22.7589 26.2868 22.6938C26.5581 22.6938 26.8294 22.6938 27.1007 22.6938Z" fill="#999EA3"/>
<path opacity="0.987" fill-rule="evenodd" clip-rule="evenodd" d="M66.612 22.9785C66.8167 23.0095 66.9998 23.0909 67.1614 23.2225C67.1597 24.6191 67.1329 26.0154 67.08 27.4115C67.0527 29.1875 67.0527 30.9634 67.08 32.7393C68.2364 31.3173 69.7217 30.4564 71.5357 30.1567C73.9426 29.9042 75.4413 30.9413 76.0321 33.268C76.1432 33.7637 76.2112 34.2653 76.2356 34.7728C76.2437 37.5929 76.2641 40.4127 76.2966 43.2321C76.8907 43.3562 77.4876 43.4647 78.087 43.5575C78.087 43.9914 78.087 44.425 78.087 44.8589C75.6321 44.8589 73.1768 44.8589 70.7219 44.8589C70.7219 44.425 70.7219 43.9914 70.7219 43.5575C71.3343 43.4554 71.9447 43.3403 72.553 43.2118C72.5839 43.1276 72.6043 43.0393 72.614 42.9474C72.6413 40.2903 72.6413 37.6332 72.614 34.9761C72.6026 34.3612 72.4399 33.7918 72.1257 33.268C71.7998 32.8925 71.386 32.6959 70.8846 32.6783C69.8767 32.6464 68.9681 32.9311 68.1583 33.5323C67.8283 33.7821 67.5097 34.0465 67.2021 34.3254C67.1817 37.2943 67.1748 40.2632 67.1817 43.2321C67.7648 43.3448 68.3479 43.4599 68.9315 43.5778C68.9717 44.0016 68.9852 44.4286 68.9721 44.8589C66.5034 44.8589 64.035 44.8589 61.5663 44.8589C61.5533 44.4286 61.5667 44.0016 61.607 43.5778C62.2332 43.4566 62.857 43.3281 63.4788 43.1914C63.5126 42.799 63.5329 42.4057 63.5398 42.012C63.5602 36.6165 63.5671 31.221 63.5602 25.8254C62.8298 25.7153 62.0973 25.6204 61.3628 25.5407C61.3372 25.1167 61.3645 24.7032 61.4442 24.3003C63.1769 23.8776 64.8993 23.437 66.612 22.9785Z" fill="white"/>
<path opacity="0.986" fill-rule="evenodd" clip-rule="evenodd" d="M139.897 22.9785C140.089 23.0202 140.265 23.1015 140.426 23.2225C140.439 23.392 140.453 23.5614 140.466 23.7309C140.364 27.0514 140.324 30.3727 140.344 33.695C140.336 36.7933 140.363 39.891 140.426 42.9881C140.43 43.0751 140.457 43.1495 140.507 43.2118C141.143 43.3403 141.78 43.4554 142.419 43.5575C142.419 43.9914 142.419 44.425 142.419 44.8589C139.829 44.8589 137.238 44.8589 134.647 44.8589C134.634 44.4286 134.648 44.0016 134.688 43.5778C135.341 43.4566 135.992 43.3281 136.641 43.1914C136.675 42.7583 136.695 42.3244 136.702 41.89C136.736 36.5351 136.73 31.1802 136.682 25.8254C135.98 25.7077 135.275 25.6129 134.566 25.5407C134.54 25.1167 134.568 24.7032 134.647 24.3003C136.404 23.8667 138.154 23.4261 139.897 22.9785Z" fill="white"/>
<path opacity="0.989" fill-rule="evenodd" clip-rule="evenodd" d="M156.499 22.9785C156.691 23.0202 156.867 23.1015 157.028 23.2225C157.042 23.3784 157.055 23.5344 157.069 23.6902C157.03 24.795 156.996 25.8998 156.967 27.0048C156.947 32.4275 156.94 37.8501 156.947 43.2728C157.585 43.3655 158.223 43.4672 158.859 43.5778C158.899 44.0016 158.913 44.4286 158.9 44.8589C157.149 44.952 155.399 45.0606 153.651 45.1843C153.593 44.5726 153.518 43.9625 153.427 43.3541C152.017 44.9447 150.26 45.5478 148.157 45.1639C146.254 44.7658 144.891 43.688 144.068 41.9307C143.225 39.9077 143.021 37.82 143.457 35.6675C143.834 33.8903 144.722 32.433 146.123 31.2955C147.71 30.177 149.446 29.8652 151.331 30.3601C152.17 30.6602 152.868 31.1549 153.427 31.8445C153.461 29.838 153.454 27.8317 153.407 25.8254C152.65 25.7106 151.89 25.6156 151.128 25.5407C151.102 25.1167 151.129 24.7032 151.209 24.3003C152.981 23.8712 154.744 23.4306 156.499 22.9785ZM150.395 32.2512C151.536 32.204 152.506 32.5836 153.305 33.39C153.332 36.2233 153.332 39.0567 153.305 41.89C152.004 43.2321 150.532 43.4558 148.89 42.5611C148.145 41.9608 147.65 41.195 147.405 40.2632C147.064 38.8379 147.01 37.4009 147.242 35.9522C147.396 34.9261 147.803 34.0178 148.463 33.2273C148.997 32.679 149.641 32.3537 150.395 32.2512Z" fill="white"/>
<path opacity="0.986" fill-rule="evenodd" clip-rule="evenodd" d="M100.183 23.1003C100.856 23.0423 101.507 23.1304 102.137 23.3646C103.216 23.9154 103.616 24.7762 103.337 25.9471C103.006 26.5809 102.477 26.9062 101.75 26.9232C100.7 26.864 100.124 26.315 100.021 25.2761C100.048 25.0914 100.069 24.9084 100.082 24.727C99.7733 24.9634 99.5426 25.2616 99.39 25.6218C99.2704 25.9375 99.189 26.2629 99.1459 26.5979C99.0881 27.9119 99.0677 29.2268 99.0848 30.5428C101.133 30.5428 103.181 30.5428 105.229 30.5428C105.173 28.985 105.423 27.4802 105.982 26.0285C107.093 23.7146 108.917 22.786 111.455 23.2426C112.595 23.6086 113.144 24.3881 113.103 25.5811C112.878 26.433 112.323 26.8804 111.435 26.9232C110.093 26.7898 109.544 26.0645 109.787 24.7474C109.759 24.7203 109.733 24.7203 109.705 24.7474C109.12 25.2869 108.815 25.9579 108.79 26.7605C108.769 28.0212 108.762 29.282 108.769 30.5428C110.709 30.5496 112.649 30.5428 114.588 30.5225C115.674 30.2581 116.758 29.9938 117.844 29.7294C118.012 29.7825 118.169 29.8638 118.312 29.9735C118.288 32.5965 118.268 35.2197 118.251 37.8431C118.258 39.6394 118.271 41.4359 118.291 43.2318C118.874 43.3445 119.458 43.4596 120.041 43.5775C120.081 44.0013 120.095 44.4283 120.082 44.8586C117.599 44.8586 115.117 44.8586 112.635 44.8586C112.622 44.4283 112.635 44.0013 112.676 43.5775C113.302 43.4563 113.926 43.3278 114.548 43.1912C114.651 39.5988 114.651 36.0063 114.548 32.4137C112.635 32.4137 110.723 32.4137 108.81 32.4137C108.803 35.9927 108.817 39.5717 108.851 43.1505C109.626 43.2798 110.399 43.4222 111.17 43.5775C111.21 44.0013 111.224 44.4283 111.211 44.8586C108.512 44.8586 105.812 44.8586 103.113 44.8586C103.1 44.4283 103.114 44.0013 103.154 43.5775C103.792 43.451 104.43 43.3225 105.066 43.1912C105.1 42.7715 105.121 42.3513 105.128 41.9304C105.148 38.7582 105.155 35.5859 105.148 32.4137C103.154 32.4137 101.16 32.4137 99.1662 32.4137C99.1556 35.9928 99.1691 39.5717 99.2069 43.1505C99.9674 43.2847 100.727 43.427 101.486 43.5775C101.526 44.0013 101.539 44.4283 101.526 44.8586C98.8273 44.8586 96.1278 44.8586 93.4287 44.8586C93.4157 44.4283 93.4291 44.0013 93.4694 43.5775C94.1384 43.4657 94.7964 43.3233 95.4429 43.1505C95.4967 39.5717 95.517 35.9928 95.504 32.4137C94.7715 32.4137 94.0391 32.4137 93.3066 32.4137C93.3066 31.8714 93.3066 31.3291 93.3066 30.7869C94.0505 30.7168 94.7898 30.6219 95.5243 30.5022C95.5255 29.0976 95.7424 27.7283 96.1754 26.3945C96.859 24.4973 98.1953 23.3993 100.183 23.1003Z" fill="white"/>
<path opacity="0.982" fill-rule="evenodd" clip-rule="evenodd" d="M116.052 23.1002C116.974 22.9892 117.726 23.2874 118.31 23.995C118.804 24.7996 118.817 25.6129 118.351 26.4352C117.582 27.3543 116.626 27.6187 115.482 27.2282C114.298 26.6433 113.898 25.7147 114.282 24.4423C114.634 23.6766 115.224 23.2292 116.052 23.1002Z" fill="white"/>
<path fill-rule="evenodd" clip-rule="evenodd" d="M10.4576 24.2798C10.5109 24.371 10.538 24.4795 10.5389 24.6051C10.538 24.7239 10.5244 24.8392 10.4982 24.9508C9.52381 25.6401 8.56076 26.345 7.60915 27.0657C7.74477 27.2555 7.88044 27.4452 8.01606 27.635C6.94173 28.203 5.81592 28.6029 4.63867 28.8348C5.27716 27.8234 6.01636 26.888 6.85636 26.0286C6.98934 26.2272 7.13176 26.417 7.28362 26.598C8.35877 25.8443 9.41675 25.0715 10.4576 24.2798Z" fill="#FCFCFC"/>
<path fill-rule="evenodd" clip-rule="evenodd" d="M29.5846 24.2798C30.6816 25.0318 31.7667 25.8045 32.8399 26.598C32.9744 26.4651 33.0897 26.316 33.1858 26.1506C33.2198 26.0893 33.2673 26.069 33.3282 26.0896C34.1501 26.9272 34.869 27.8423 35.4848 28.8348C34.309 28.6033 33.1832 28.2034 32.1074 27.635C32.2412 27.4692 32.3701 27.2998 32.494 27.1267C32.5245 27.0805 32.5177 27.0398 32.4737 27.0047C31.5299 26.3122 30.5804 25.6276 29.6253 24.9508C29.5857 24.7309 29.5721 24.5073 29.5846 24.2798Z" fill="#FCFCFC"/>
<path opacity="0.986" fill-rule="evenodd" clip-rule="evenodd" d="M53.5487 24.5649C55.7221 24.4098 57.7294 24.9046 59.5711 26.0493C59.624 26.082 59.6512 26.1295 59.6524 26.1917C59.5617 27.5187 59.4942 28.8472 59.449 30.1773C58.6759 30.1773 57.9027 30.1773 57.1296 30.1773C56.9306 29.0242 56.7271 27.8718 56.5192 26.7204C55.1772 26.1133 53.821 26.0794 52.4501 26.6187C50.9725 27.4421 50.4639 28.669 50.9241 30.2993C51.1463 30.8593 51.4922 31.327 51.9618 31.7024C52.2222 31.8947 52.4932 32.0709 52.7756 32.2311C53.8511 32.728 54.9363 33.2025 56.0309 33.6546C57.2403 34.1737 58.3052 34.899 59.2252 35.8304C60.1119 36.8759 60.5391 38.0892 60.507 39.4704C60.4292 42.0826 59.1678 43.8448 56.7227 44.7575C54.9855 45.335 53.2085 45.4977 51.3921 45.2455C50.2234 45.106 49.0975 44.8079 48.0147 44.3508C47.6289 44.1783 47.2627 43.975 46.916 43.7407C46.9933 42.3132 47.0613 40.8828 47.1195 39.45C47.8926 39.4433 48.6657 39.45 49.4389 39.4704C49.6419 40.6483 49.8454 41.8276 50.0493 43.0087C50.455 43.2344 50.8891 43.3971 51.3514 43.4967C52.4541 43.7541 53.5528 43.7407 54.6474 43.456C56.3398 42.9159 57.106 41.7568 56.9465 39.9788C56.8256 39.1741 56.439 38.5302 55.7868 38.0469C55.5967 37.9249 55.4071 37.8029 55.2171 37.6809C53.9727 37.1172 52.7247 36.5614 51.4735 36.0134C50.4053 35.5019 49.4629 34.8173 48.6454 33.9596C47.4076 32.4248 47.0141 30.6896 47.4654 28.7539C47.9589 27.0673 49.0238 25.8946 50.6596 25.2359C51.5931 24.8637 52.5563 24.64 53.5487 24.5649Z" fill="white"/>
<path opacity="0.878" fill-rule="evenodd" clip-rule="evenodd" d="M11.8418 28.2249C14.1616 28.198 16.4674 28.2251 18.7593 28.3063C16.4495 28.2793 14.1437 28.2522 11.8418 28.2249Z" fill="#DDDEE0"/>
<path fill-rule="evenodd" clip-rule="evenodd" d="M10.4985 28.5098C10.5454 28.7328 10.5521 28.9633 10.5188 29.2012C10.2069 29.4251 9.90172 29.6555 9.60329 29.8925C9.7086 30.0624 9.82388 30.2251 9.94917 30.3806C9.97965 30.4267 9.97289 30.4674 9.92882 30.5026C8.87898 31.0466 7.78031 31.4262 6.63281 31.6413C7.25083 30.6504 7.96969 29.7354 8.78946 28.8961C8.82332 28.8681 8.85042 28.8749 8.87084 28.9165C9.00757 29.087 9.13644 29.2632 9.25741 29.4452C9.67861 29.1389 10.0923 28.8271 10.4985 28.5098Z" fill="#FCFCFC"/>
<path fill-rule="evenodd" clip-rule="evenodd" d="M29.5831 28.5098C30.0153 28.8127 30.4426 29.1245 30.8649 29.4452C30.9938 29.2689 31.1226 29.0927 31.2515 28.9165C31.2719 28.8749 31.299 28.8681 31.3328 28.8961C32.1548 29.7337 32.8737 30.6488 33.4895 31.6413C32.3204 31.428 31.2082 31.0348 30.1528 30.4619C30.2675 30.273 30.3896 30.09 30.519 29.9129C30.4946 29.8476 30.4539 29.7934 30.3969 29.7502C30.1336 29.5751 29.8758 29.3921 29.6238 29.2012C29.5833 28.9723 29.5697 28.7418 29.5831 28.5098Z" fill="#FCFCFC"/>
<path fill-rule="evenodd" clip-rule="evenodd" d="M14.9336 29.5666C15.2392 29.5129 15.5512 29.5129 15.8695 29.5666C15.8645 29.5913 15.8509 29.6049 15.8288 29.6073C15.5379 29.567 15.2396 29.5534 14.9336 29.5666Z" fill="#4D555E"/>
<path fill-rule="evenodd" clip-rule="evenodd" d="M25.1879 29.5666C24.8819 29.5534 24.5835 29.567 24.2926 29.6073C24.2705 29.6049 24.257 29.5913 24.252 29.5666C24.5703 29.5129 24.8823 29.5129 25.1879 29.5666Z" fill="#4C545D"/>
<path fill-rule="evenodd" clip-rule="evenodd" d="M14.9358 29.5664C15.2417 29.5532 15.5401 29.5667 15.831 29.6071C14.4018 30.6353 12.9776 31.6724 11.5584 32.7183C11.6922 32.8841 11.821 33.0536 11.9449 33.2267C11.97 33.2653 11.9633 33.2992 11.9246 33.3284C10.8579 33.8599 9.74569 34.2531 8.58789 34.5078C9.21845 33.484 9.95769 32.5418 10.8056 31.6813C10.9392 31.8827 11.0885 32.0725 11.2532 32.2506C12.4871 31.36 13.7146 30.4653 14.9358 29.5664Z" fill="#FCFCFC"/>
<path fill-rule="evenodd" clip-rule="evenodd" d="M24.293 29.6076C24.5838 29.5672 24.8822 29.5537 25.1882 29.5669C26.4139 30.446 27.6346 31.334 28.8504 32.2308C28.8843 32.2588 28.9114 32.252 28.9318 32.2104C29.0607 32.0342 29.1895 31.858 29.3184 31.6817C30.1488 32.5295 30.8812 33.4514 31.5157 34.4473C31.5398 34.4873 31.5262 34.5144 31.475 34.5286C30.3357 34.2463 29.2438 33.8396 28.1994 33.3085C28.1578 33.2881 28.151 33.261 28.179 33.2272C28.3227 33.0687 28.4515 32.8992 28.5656 32.7188C27.1546 31.6615 25.7304 30.6244 24.293 29.6076Z" fill="#FCFCFC"/>
<path opacity="0.986" fill-rule="evenodd" clip-rule="evenodd" d="M85.5317 30.1366C86.9701 30.0052 88.3129 30.2966 89.5601 31.011C91.0104 32.0171 91.8307 33.4066 92.022 35.1796C92.1204 36.053 92.0863 36.9206 91.9202 37.7825C88.8818 37.7825 85.8438 37.7825 82.8053 37.7825C82.8163 38.9103 83.0943 39.9678 83.6395 40.9548C84.623 42.3782 85.9862 43.0086 87.729 42.8459C88.7129 42.7471 89.5809 42.3811 90.3333 41.7478C90.5847 41.4896 90.8423 41.2391 91.1064 40.9954C91.4108 41.2521 91.7095 41.5164 92.0016 41.7885C90.6995 44.1246 88.6987 45.2837 85.9996 45.2658C83.8857 45.2999 82.1087 44.5545 80.669 43.0289C79.6741 41.784 79.1179 40.3607 79.0007 38.7586C78.7997 36.8755 79.1659 35.1132 80.0994 33.4715C81.3938 31.5262 83.2045 30.4146 85.5317 30.1366ZM85.6537 31.6007C86.9774 31.5484 87.893 32.1314 88.4004 33.3495C88.6088 33.9431 88.6767 34.5531 88.6039 35.1796C88.538 35.638 88.3007 35.9702 87.8918 36.1761C87.6562 36.2688 87.412 36.323 87.1593 36.3387C85.7079 36.3591 84.2568 36.3659 82.8053 36.3591C82.8619 35.1973 83.1537 34.0993 83.6802 33.0648C84.1262 32.2864 84.7842 31.7983 85.6537 31.6007Z" fill="white"/>
<path opacity="0.986" fill-rule="evenodd" clip-rule="evenodd" d="M127.08 30.1366C128.831 29.9672 130.391 30.4213 131.76 31.499C133.051 32.7744 133.675 34.3266 133.631 36.1557C133.624 36.7031 133.569 37.2454 133.469 37.7825C130.417 37.7757 127.365 37.7825 124.313 37.8028C124.359 38.8054 124.596 39.7611 125.025 40.6701C125.963 42.3017 127.381 43.0269 129.277 42.8459C130.261 42.7471 131.129 42.381 131.882 41.7478C132.133 41.4896 132.391 41.239 132.655 40.9954C132.959 41.252 133.258 41.5164 133.55 41.7885C132.248 44.1246 130.247 45.2836 127.548 45.2658C125.434 45.2999 123.657 44.5544 122.217 43.0289C121.296 41.8918 120.754 40.5903 120.59 39.1246C120.313 37.2047 120.625 35.3881 121.526 33.6748C122.81 31.6124 124.662 30.433 127.08 30.1366ZM127.202 31.6007C128.525 31.5471 129.441 32.13 129.949 33.3495C130.157 33.9431 130.225 34.5531 130.152 35.1796C129.985 35.9457 129.504 36.332 128.708 36.3387C127.256 36.3591 125.805 36.3658 124.354 36.3591C124.41 35.1974 124.702 34.0993 125.229 33.0648C125.675 32.2863 126.333 31.7983 127.202 31.6007Z" fill="white"/>
<path fill-rule="evenodd" clip-rule="evenodd" d="M19.2881 30.665C19.5346 30.7244 19.7855 30.7515 20.0408 30.7464C20.3224 30.7425 20.6005 30.7221 20.875 30.6854C22.8752 32.1527 24.8827 33.61 26.8974 35.0574C27.0482 34.9132 27.1771 34.7506 27.2839 34.5693C27.3131 34.5307 27.347 34.5239 27.3857 34.549C28.2054 35.3882 28.9243 36.3033 29.5423 37.2942C28.3566 37.0776 27.2308 36.6777 26.1649 36.0945C26.3055 35.9151 26.4412 35.7321 26.5718 35.5454C24.4176 33.9399 22.2474 32.3538 20.0612 30.787C17.875 32.3538 15.7048 33.9399 13.5506 35.5454C13.6812 35.7321 13.8169 35.9151 13.9575 36.0945C12.8848 36.6551 11.759 37.0618 10.5801 37.3146C11.1902 36.3112 11.9091 35.3894 12.7367 34.549C12.7976 34.5284 12.8451 34.5487 12.8791 34.61C12.9759 34.7559 13.0776 34.8983 13.1843 35.037C13.2416 35.0499 13.2959 35.0363 13.3471 34.9964C15.3348 33.5582 17.3151 32.1144 19.2881 30.665Z" fill="#FBFCFC"/>
<path fill-rule="evenodd" clip-rule="evenodd" d="M20.0596 34.7319C20.2916 34.9504 20.495 35.1944 20.67 35.464C20.5481 35.5789 20.4192 35.6874 20.2834 35.7894C20.1995 35.887 20.1317 35.9954 20.0799 36.1147C19.924 35.8504 19.7137 35.6402 19.4492 35.4843C19.6286 35.2137 19.8321 34.9629 20.0596 34.7319Z" fill="#FAFAFA"/>
<path fill-rule="evenodd" clip-rule="evenodd" d="M18.5564 35.9113C18.9452 35.8574 19.264 35.9794 19.5126 36.2774C19.6959 36.6166 19.879 36.9556 20.062 37.2941C20.269 36.9482 20.4656 36.5957 20.652 36.2367C21.0859 35.824 21.5402 35.8037 22.0152 36.1757C22.3993 36.4524 22.7722 36.7439 23.1342 37.0501C23.322 37.3879 23.322 37.7268 23.1342 38.0668C22.8473 38.3332 22.5828 38.6179 22.3407 38.9209C22.7439 39.0216 23.1508 39.1097 23.5614 39.1852C23.9904 39.4259 24.1464 39.7852 24.0294 40.263C23.869 40.7714 23.6926 41.2728 23.5004 41.7678C23.2269 42.0667 22.8946 42.1684 22.5035 42.0728C22.1644 41.9032 21.8253 41.734 21.4862 41.5644C21.4726 41.5848 21.459 41.6051 21.4455 41.6254C21.5282 42.0496 21.5757 42.4767 21.5879 42.9065C21.5038 43.2482 21.2936 43.4719 20.9572 43.5776C20.3468 43.6048 19.7365 43.6048 19.1261 43.5776C18.8442 43.4723 18.6611 43.2754 18.5767 42.9879C18.5639 42.5096 18.5911 42.0354 18.6581 41.5644C18.3104 41.7279 17.9645 41.8975 17.6205 42.0728C17.2015 42.1899 16.8691 42.0744 16.6236 41.7271C16.4448 41.2724 16.282 40.8112 16.1353 40.3443C15.9518 39.7692 16.1349 39.3693 16.6846 39.1446C17.0679 39.0869 17.4478 39.0124 17.824 38.9209C17.5384 38.6288 17.2604 38.3305 16.9898 38.0262C16.7606 37.5926 16.8216 37.2063 17.1729 36.8671C17.631 36.537 18.0921 36.2184 18.5564 35.9113Z" fill="#FDFDFD"/>
<path fill-rule="evenodd" clip-rule="evenodd" d="M16.1966 37.7827C16.2373 37.7827 16.278 37.7827 16.3187 37.7827C16.3488 38.0839 16.4709 38.3415 16.6849 38.5554C16.3865 38.6164 16.1288 38.752 15.9118 38.9621C15.7034 38.713 15.5271 38.4418 15.3828 38.1487C15.6469 38.0031 15.9181 37.8811 16.1966 37.7827Z" fill="#F8F9F9"/>
<path fill-rule="evenodd" clip-rule="evenodd" d="M23.8467 37.7827C24.1634 37.8596 24.4618 37.9816 24.7419 38.1487C24.6055 38.4491 24.4292 38.7202 24.2129 38.9621C23.9995 38.7674 23.7554 38.625 23.4805 38.5351C23.6623 38.3139 23.7844 38.0632 23.8467 37.7827Z" fill="#FAFAFA"/>
<path fill-rule="evenodd" clip-rule="evenodd" d="M18.7587 37.9043C19.2389 37.9468 19.6729 38.1094 20.0608 38.3923C20.456 38.0912 20.8968 37.9421 21.3833 37.945C21.4304 38.3792 21.3965 38.8062 21.2815 39.2261C21.6387 39.5259 21.9236 39.8851 22.136 40.3038C21.9696 40.4342 21.7797 40.5224 21.5664 40.5682C21.3142 40.6449 21.0565 40.6788 20.7932 40.6698C20.6628 41.1343 20.4186 41.5272 20.0608 41.8493C19.7355 41.5251 19.4914 41.1457 19.3283 40.7105C18.8605 40.6834 18.4197 40.5614 18.0059 40.3445C18.1796 39.9256 18.4509 39.5731 18.8197 39.2871C18.7799 39.0051 18.746 38.7204 18.718 38.433C18.7265 38.2561 18.7401 38.0798 18.7587 37.9043Z" fill="#141F2A"/>
<path fill-rule="evenodd" clip-rule="evenodd" d="M19.8989 39.0836C20.227 39.0324 20.4644 39.1544 20.611 39.4497C20.67 40.0821 20.3919 40.3194 19.7768 40.1614C19.3681 39.7486 19.4088 39.3894 19.8989 39.0836Z" fill="#FBFBFC"/>
<path fill-rule="evenodd" clip-rule="evenodd" d="M17.9056 42.5405C17.9736 42.8167 18.0347 43.1014 18.0887 43.3946C17.7934 43.5109 17.4882 43.5922 17.1732 43.6386C17.1246 43.3153 17.0975 42.9899 17.0918 42.6625C17.2822 42.6695 17.4721 42.6625 17.6615 42.6422C17.7519 42.619 17.8333 42.5853 17.9056 42.5405Z" fill="#F6F6F7"/>
<path fill-rule="evenodd" clip-rule="evenodd" d="M22.1784 42.5405C22.4513 42.645 22.7362 42.6857 23.0329 42.6625C23.043 42.9631 23.0226 43.2612 22.9719 43.5573C22.9444 43.6012 22.9038 43.6284 22.8498 43.6386C22.5571 43.5906 22.2791 43.5028 22.0156 43.3743C22.144 43.1115 22.1982 42.8338 22.1784 42.5405Z" fill="#F8F9F9"/>
<path opacity="0.964" fill-rule="evenodd" clip-rule="evenodd" d="M124.801 53.3589C125.694 53.4353 126.026 53.91 125.798 54.7823C125.458 55.3078 124.99 55.464 124.394 55.25C123.81 54.8759 123.681 54.3809 124.007 53.7656C124.218 53.5147 124.482 53.3792 124.801 53.3589Z" fill="white"/>
<path opacity="0.966" fill-rule="evenodd" clip-rule="evenodd" d="M47.2441 54.2129C49.7397 54.2129 52.2358 54.2129 54.7314 54.2129C54.7717 55.1206 54.7985 56.0292 54.8128 56.9378C54.5177 56.9504 54.226 56.937 53.9379 56.8971C53.8227 56.2753 53.721 55.6514 53.6327 55.0263C52.4661 55.0263 51.2999 55.0263 50.1332 55.0263C50.1186 56.2736 50.1048 57.5206 50.0925 58.7679C50.8116 58.7748 51.5306 58.7679 52.2492 58.7476C52.3452 58.2856 52.4132 57.8179 52.4526 57.3445C52.6968 57.3445 52.9409 57.3445 53.1851 57.3445C53.1851 58.5373 53.1851 59.7306 53.1851 60.9234C52.9409 60.9234 52.6968 60.9234 52.4526 60.9234C52.405 60.4618 52.3509 60.0006 52.2899 59.5406C51.5574 59.5406 50.825 59.5406 50.0925 59.5406C50.1023 60.8555 50.1161 62.1708 50.1332 63.4856C51.3947 63.4856 52.6561 63.4856 53.9175 63.4856C54.0172 62.8605 54.1259 62.2366 54.2431 61.6148C54.5401 61.5741 54.8388 61.5607 55.1383 61.5741C55.1021 62.4693 55.0614 63.364 55.0162 64.2583C52.4254 64.2583 49.835 64.2583 47.2441 64.2583C47.2441 64.0416 47.2441 63.8244 47.2441 63.6076C47.6946 63.571 48.1422 63.5169 48.587 63.4449C48.6346 60.6526 48.6411 57.8598 48.6073 55.067C48.1573 54.9905 47.7027 54.9364 47.2441 54.9043C47.2441 54.6737 47.2441 54.4435 47.2441 54.2129Z" fill="white"/>
<path opacity="0.973" fill-rule="evenodd" clip-rule="evenodd" d="M97.2949 54.2129C98.7191 54.2129 100.143 54.2129 101.568 54.2129C101.568 54.4435 101.568 54.6737 101.568 54.9043C101.106 54.9449 100.645 54.9856 100.184 55.0263C100.123 57.8325 100.13 60.6387 100.204 63.4449C100.654 63.5206 101.109 63.5751 101.568 63.6076C101.568 63.8244 101.568 64.0416 101.568 64.2583C100.143 64.2583 98.7191 64.2583 97.2949 64.2583C97.2949 64.0416 97.2949 63.8244 97.2949 63.6076C97.7454 63.571 98.193 63.5169 98.6377 63.4449C98.6853 60.6526 98.6919 57.8598 98.6581 55.067C98.208 54.9905 97.7535 54.9364 97.2949 54.9043C97.2949 54.6737 97.2949 54.4435 97.2949 54.2129Z" fill="white"/>
<path opacity="0.974" fill-rule="evenodd" clip-rule="evenodd" d="M119.307 55.1079C119.619 55.1079 119.93 55.1079 120.243 55.1079C120.23 55.7863 120.203 56.4643 120.161 57.1414C120.84 57.1414 121.517 57.1414 122.196 57.1414C122.196 57.4127 122.196 57.6835 122.196 57.9548C121.517 57.9548 120.84 57.9548 120.161 57.9548C120.142 59.678 120.162 61.3999 120.222 63.1199C120.405 63.5396 120.723 63.7092 121.179 63.6282C121.459 63.5424 121.716 63.4135 121.952 63.2419C122.111 63.3537 122.233 63.4961 122.318 63.6689C121.878 64.2342 121.294 64.4986 120.568 64.462C119.708 64.5104 119.144 64.1309 118.879 63.3232C118.837 62.9995 118.816 62.6741 118.818 62.3471C118.854 60.8834 118.867 59.4193 118.859 57.9548C118.439 57.9548 118.018 57.9548 117.598 57.9548C117.598 57.7242 117.598 57.494 117.598 57.2634C118.046 57.2126 118.493 57.1585 118.94 57.1007C119.057 56.4354 119.179 55.7712 119.307 55.1079Z" fill="white"/>
<path opacity="0.964" fill-rule="evenodd" clip-rule="evenodd" d="M128.545 55.1074C128.857 55.1074 129.169 55.1074 129.481 55.1074C129.456 55.7854 129.429 56.4634 129.4 57.1409C130.078 57.1409 130.756 57.1409 131.434 57.1409C131.434 57.4122 131.434 57.683 131.434 57.9543C130.756 57.9543 130.078 57.9543 129.4 57.9543C129.393 59.6352 129.4 61.3165 129.42 62.9974C129.517 63.4061 129.775 63.6233 130.193 63.6481C130.564 63.6082 130.897 63.4728 131.19 63.2414C131.319 63.3772 131.441 63.5196 131.556 63.6684C131.11 64.2378 130.52 64.5022 129.786 64.4615C129.157 64.4965 128.655 64.2659 128.28 63.7701C128.21 63.6412 128.156 63.5053 128.118 63.3634C128.058 61.5617 128.038 59.7588 128.057 57.9543C127.65 57.9543 127.243 57.9543 126.836 57.9543C126.836 57.7237 126.836 57.4935 126.836 57.2629C127.284 57.2121 127.732 57.158 128.179 57.1002C128.285 56.4333 128.407 55.7687 128.545 55.1074Z" fill="white"/>
<path opacity="0.977" fill-rule="evenodd" clip-rule="evenodd" d="M142.055 55.1079C142.367 55.1079 142.679 55.1079 142.991 55.1079C142.953 55.7851 142.926 56.463 142.909 57.1414C143.574 57.1414 144.239 57.1414 144.903 57.1414C144.903 57.4127 144.903 57.6835 144.903 57.9548C144.225 57.9548 143.547 57.9548 142.869 57.9548C142.862 59.5543 142.869 61.1543 142.889 62.7538C142.96 63.4761 143.347 63.7543 144.049 63.5876C144.268 63.49 144.479 63.3749 144.679 63.2419C144.816 63.3712 144.945 63.507 145.066 63.6486C144.734 64.0996 144.287 64.364 143.723 64.4416C142.977 64.5913 142.347 64.3949 141.831 63.8519C141.752 63.7076 141.684 63.5587 141.627 63.4046C141.568 61.5895 141.547 59.7731 141.566 57.9548C141.16 57.9548 140.753 57.9548 140.346 57.9548C140.346 57.7242 140.346 57.494 140.346 57.2634C140.792 57.2203 141.233 57.1528 141.668 57.0601C141.789 56.4061 141.918 55.7554 142.055 55.1079Z" fill="white"/>
<path opacity="0.974" fill-rule="evenodd" clip-rule="evenodd" d="M58.0677 56.938C58.1767 56.9449 58.2715 56.9856 58.3525 57.06C58.4119 57.4386 58.4665 57.8181 58.5153 58.1988C59.1615 57.5505 59.9346 57.1369 60.8347 56.9583C62.1938 56.8522 62.9332 57.4826 63.0524 58.8495C63.1098 60.3941 63.1301 61.9396 63.1134 63.4858C63.4662 63.5538 63.8186 63.6213 64.1714 63.6892C64.1714 63.8791 64.1714 64.0686 64.1714 64.2586C63.0048 64.2586 61.8386 64.2586 60.6719 64.2586C60.6719 64.0686 60.6719 63.8791 60.6719 63.6892C61.0268 63.6318 61.3791 63.5639 61.7299 63.4858C61.8093 62.1584 61.8296 60.8297 61.7909 59.5002C61.7832 59.1427 61.7018 58.8039 61.5468 58.4834C61.2921 58.1861 60.9665 58.0369 60.5702 58.0361C59.8048 58.1138 59.1399 58.4119 58.5763 58.9308C58.5491 60.1375 58.5491 61.3438 58.5763 62.5504C58.5832 62.8632 58.6036 63.1747 58.6374 63.4858C58.9609 63.5639 59.2864 63.6318 59.614 63.6892C59.614 63.8791 59.614 64.0686 59.614 64.2586C58.4473 64.2586 57.2811 64.2586 56.1145 64.2586C56.1145 64.0686 56.1145 63.8791 56.1145 63.6892C56.4693 63.6318 56.8217 63.5639 57.1725 63.4858C57.2062 63.3248 57.2266 63.1621 57.2335 62.9978C57.2709 61.5194 57.2575 60.0415 57.1928 58.5648C56.8209 58.5123 56.4477 58.4578 56.0738 58.4021C56.0197 58.2122 56.0197 58.0227 56.0738 57.8327C56.7468 57.5436 57.4117 57.2455 58.0677 56.938Z" fill="white"/>
<path opacity="0.967" fill-rule="evenodd" clip-rule="evenodd" d="M67.8734 56.9379C69.2602 56.8138 70.2571 57.3694 70.8643 58.6053C71.0828 59.2597 71.1235 59.9239 70.9863 60.5982C69.4014 60.6791 67.8079 60.7063 66.2051 60.6795C66.1672 61.5364 66.4386 62.275 67.0189 62.896C67.6818 63.4162 68.4281 63.5789 69.2569 63.3841C69.8022 63.1713 70.2767 62.8529 70.6811 62.4283C70.802 62.5019 70.9176 62.5833 71.027 62.6723C71.0543 62.713 71.0543 62.7537 71.027 62.7943C70.1367 64.2381 68.8549 64.7603 67.1817 64.3601C65.7754 63.9026 64.9953 62.9334 64.8419 61.4522C64.6783 60.3171 64.9091 59.2731 65.5337 58.3207C66.1265 57.5398 66.9066 57.079 67.8734 56.9379ZM67.9141 57.6699C68.8842 57.6358 69.5015 58.0831 69.7656 59.012C69.8409 59.383 69.7391 59.688 69.4604 59.9271C69.3546 59.9645 69.246 59.9918 69.1349 60.0085C68.1721 60.0288 67.2089 60.0357 66.2458 60.0288C66.2722 59.1967 66.5978 58.5118 67.2224 57.975C67.4474 57.8485 67.6781 57.7468 67.9141 57.6699Z" fill="white"/>
<path opacity="0.967" fill-rule="evenodd" clip-rule="evenodd" d="M74.0579 56.938C74.217 56.9429 74.3257 57.0173 74.3834 57.1617C74.4351 57.6851 74.4962 58.2069 74.5666 58.7275C74.8782 57.9686 75.4003 57.4061 76.1332 57.0397C76.6585 56.8579 77.1468 56.9258 77.5981 57.243C77.6974 57.3337 77.7653 57.4419 77.8015 57.5684C77.7787 58.4001 77.358 58.7388 76.5401 58.5851C76.2565 58.4708 75.9989 58.3151 75.767 58.1174C75.1977 58.5774 74.8111 59.1602 74.6072 59.8662C74.5869 61.0725 74.58 62.2792 74.5869 63.4858C74.9954 63.5448 75.4024 63.6127 75.8076 63.6892C75.8076 63.8791 75.8076 64.0686 75.8076 64.2586C74.5869 64.2586 73.3662 64.2586 72.1454 64.2586C72.1454 64.0686 72.1454 63.8791 72.1454 63.6892C72.5096 63.6396 72.8689 63.5716 73.2237 63.4858C73.251 61.927 73.251 60.3677 73.2237 58.8088C73.214 58.7169 73.1936 58.6286 73.1627 58.5444C72.7944 58.507 72.4282 58.4594 72.064 58.4021C72.0099 58.2122 72.0099 58.0227 72.064 57.8327C72.7371 57.5436 73.402 57.2455 74.0579 56.938Z" fill="white"/>
<path opacity="0.961" fill-rule="evenodd" clip-rule="evenodd" d="M80.8933 56.9379C81.7527 56.844 82.5393 57.0335 83.2534 57.5073C83.8044 57.3214 84.3537 57.1319 84.9014 56.9379C84.9853 56.9627 85.0597 57.0034 85.1252 57.0599C85.1659 57.3979 85.1794 57.7367 85.1659 58.0767C84.6911 58.0697 84.2162 58.0767 83.7417 58.097C83.8785 58.3443 83.9668 58.6086 84.0062 58.8901C84.2117 60.5205 83.5135 61.5035 81.9106 61.8386C81.7141 61.8618 81.5175 61.8821 81.3206 61.8996C80.9418 61.8748 80.5686 61.8272 80.2016 61.7573C80.0002 62.0245 79.8781 62.3226 79.8354 62.652C79.863 62.966 80.0258 63.1693 80.3236 63.2621C81.3422 63.2657 82.3594 63.293 83.3755 63.3434C84.6483 63.559 85.2111 64.3113 85.0642 65.6006C84.8852 66.3355 84.4713 66.8979 83.8231 67.2884C83.0492 67.7065 82.2215 67.8895 81.3409 67.8374C80.4677 67.9025 79.6539 67.7195 78.8994 67.2884C78.1593 66.6356 78.0575 65.8967 78.5943 65.0719C78.9088 64.7579 79.2681 64.507 79.6726 64.3195C78.8494 64.0502 78.5715 63.5012 78.8384 62.6723C78.93 62.4487 79.052 62.2453 79.2046 62.0623C79.3816 61.8923 79.5513 61.7162 79.7133 61.5336C78.8046 60.9052 78.4449 60.0378 78.635 58.9307C78.7696 58.1185 79.2103 57.5423 79.9574 57.2023C80.2655 57.0815 80.5776 56.9932 80.8933 56.9379ZM81.1375 57.5886C81.9464 57.55 82.4685 57.916 82.7041 58.6867C82.8787 59.3911 82.7839 60.0552 82.4193 60.6795C81.8801 61.2863 81.2494 61.4014 80.5271 61.0252C80.0612 60.6059 79.8305 60.0772 79.8354 59.4391C79.8459 58.9966 79.9611 58.583 80.1812 58.1987C80.4201 57.866 80.7387 57.6626 81.1375 57.5886ZM80.0795 64.4618C81.0284 64.4915 81.9782 64.5118 82.9279 64.5228C83.7495 64.7209 84.0546 65.2293 83.8435 66.0479C83.5855 66.5128 83.1989 66.8178 82.6838 66.963C81.9098 67.1509 81.1367 67.1509 80.3643 66.963C79.7951 66.7678 79.5102 66.3676 79.5098 65.7633C79.5456 65.2585 79.7352 64.8246 80.0795 64.4618Z" fill="white"/>
<path opacity="0.976" fill-rule="evenodd" clip-rule="evenodd" d="M104.618 56.938C104.732 56.9636 104.834 57.0177 104.923 57.1007C104.969 57.4797 105.009 57.8592 105.045 58.2394C105.677 57.5745 106.443 57.1474 107.344 56.9583C108.763 56.844 109.516 57.5017 109.602 58.9308C109.614 60.4498 109.647 61.968 109.704 63.4858C110.04 63.5692 110.379 63.6371 110.721 63.6892C110.721 63.8791 110.721 64.0686 110.721 64.2586C109.555 64.2586 108.388 64.2586 107.222 64.2586C107.222 64.0686 107.222 63.8791 107.222 63.6892C107.577 63.6318 107.929 63.5639 108.28 63.4858C108.364 62.049 108.371 60.6117 108.3 59.1748C108.24 58.4505 107.847 58.0711 107.12 58.0361C106.355 58.1138 105.69 58.4119 105.126 58.9308C105.099 60.3002 105.099 61.6691 105.126 63.0385C105.133 63.1894 105.153 63.3386 105.187 63.4858C105.511 63.5639 105.836 63.6318 106.164 63.6892C106.164 63.8791 106.164 64.0686 106.164 64.2586C104.997 64.2586 103.831 64.2586 102.664 64.2586C102.664 64.0686 102.664 63.8791 102.664 63.6892C103.019 63.6318 103.372 63.5639 103.722 63.4858C103.822 61.846 103.829 60.2058 103.743 58.5648C103.373 58.5058 103 58.4582 102.624 58.4224C102.571 58.228 102.571 58.0312 102.624 57.8327C103.297 57.5436 103.962 57.2455 104.618 56.938Z" fill="white"/>
<path opacity="0.961" fill-rule="evenodd" clip-rule="evenodd" d="M114.017 56.9378C114.925 56.8577 115.766 57.0541 116.54 57.5275C116.566 57.5983 116.579 57.6727 116.581 57.7512C116.555 58.2128 116.528 58.674 116.499 59.134C116.228 59.134 115.957 59.134 115.685 59.134C115.619 58.7399 115.544 58.3466 115.462 57.9546C114.972 57.6727 114.45 57.5979 113.895 57.7309C113.274 57.8911 113.009 58.2913 113.101 58.9306C113.169 59.1596 113.297 59.3426 113.488 59.4797C113.631 59.5712 113.78 59.6525 113.936 59.7237C114.576 59.9417 115.2 60.1991 115.807 60.4964C116.935 61.1532 117.241 62.0817 116.723 63.2823C116.212 63.994 115.513 64.3804 114.627 64.4414C113.624 64.5606 112.681 64.3776 111.799 63.8924C111.767 63.3368 111.746 62.7813 111.738 62.2249C112.024 62.2115 112.309 62.2249 112.593 62.2656C112.685 62.6658 112.78 63.0655 112.878 63.4653C112.916 63.5255 112.97 63.5662 113.04 63.5873C113.63 63.7862 114.227 63.8135 114.831 63.6687C115.634 63.4121 115.885 62.8899 115.584 62.1029C115.352 61.8414 115.074 61.6449 114.749 61.5132C114.125 61.3029 113.515 61.0589 112.918 60.7811C111.879 60.1589 111.587 59.2845 112.043 58.1579C112.301 57.6971 112.674 57.3649 113.162 57.1615C113.445 57.0578 113.73 56.9834 114.017 56.9378Z" fill="white"/>
<path opacity="0.977" fill-rule="evenodd" clip-rule="evenodd" d="M125.249 56.938C125.349 56.9494 125.437 56.99 125.513 57.06C125.52 58.2256 125.513 59.3916 125.493 60.5576C125.488 61.5345 125.515 62.5106 125.574 63.4858C125.91 63.5692 126.249 63.6371 126.591 63.6892C126.591 63.8791 126.591 64.0686 126.591 64.2586C125.411 64.2586 124.231 64.2586 123.051 64.2586C123.051 64.0686 123.051 63.8791 123.051 63.6892C123.42 63.6371 123.786 63.5692 124.15 63.4858C124.25 61.846 124.256 60.2058 124.17 58.5648C123.785 58.5091 123.398 58.455 123.011 58.4021C122.97 58.2142 122.956 58.0243 122.97 57.8327C123.741 57.5558 124.5 57.2572 125.249 56.938Z" fill="white"/>
<path opacity="0.966" fill-rule="evenodd" clip-rule="evenodd" d="M148.523 56.9374C149.731 56.8194 150.674 57.2534 151.351 58.2388C151.73 59.0038 151.825 59.8038 151.636 60.6383C150.045 60.679 148.451 60.6924 146.855 60.679C146.82 61.6144 147.146 62.3936 147.831 63.0175C148.466 63.4393 149.158 63.5613 149.907 63.3835C150.106 63.3246 150.296 63.2432 150.476 63.1395C150.792 62.9325 151.083 62.6954 151.351 62.4278C151.459 62.5087 151.568 62.5901 151.677 62.6718C151.704 62.7125 151.704 62.7532 151.677 62.7938C151.05 63.9102 150.094 64.4662 148.808 64.4613C147.076 64.432 145.998 63.5779 145.573 61.8991C145.384 60.9303 145.452 59.9815 145.776 59.0522C146.322 57.8618 147.238 57.1566 148.523 56.9374ZM148.604 57.6694C149.55 57.63 150.154 58.0639 150.415 58.9709C150.467 59.2572 150.427 59.5284 150.293 59.7843C150.153 59.9213 149.983 59.9961 149.784 60.0079C148.822 60.0283 147.859 60.0352 146.895 60.0283C146.92 59.1592 147.273 58.4613 147.953 57.9338C148.161 57.8093 148.378 57.7211 148.604 57.6694Z" fill="white"/>
<path opacity="0.971" fill-rule="evenodd" clip-rule="evenodd" d="M133.956 57.0597C134.12 57.0528 134.282 57.0597 134.445 57.0801C134.465 57.1004 134.485 57.1207 134.506 57.1411C134.487 58.822 134.487 60.5028 134.506 62.1841C134.59 63.0683 135.071 63.4547 135.95 63.3432C136.643 63.2102 137.233 62.8918 137.72 62.3875C137.731 60.9368 137.752 59.4861 137.781 58.0358C137.44 57.9813 137.101 57.9134 136.764 57.8325C136.71 57.6425 136.71 57.453 136.764 57.2631C137.493 57.1594 138.225 57.0984 138.961 57.0801C139.018 57.1232 139.059 57.1773 139.083 57.2427C139.015 59.3222 138.987 61.4033 139.002 63.4856C139.34 63.5584 139.679 63.6263 140.019 63.6889C140.019 63.8923 140.019 64.0956 140.019 64.299C139.314 64.3246 138.609 64.3514 137.903 64.3803C137.872 63.9586 137.825 63.538 137.761 63.1195C136.855 64.2575 135.695 64.6573 134.282 64.3193C133.786 64.0814 133.467 63.695 133.326 63.1602C133.269 62.9463 133.228 62.7295 133.204 62.5095C133.18 61.0181 133.186 59.5268 133.224 58.0358C132.882 57.9837 132.543 57.9158 132.207 57.8325C132.152 57.6425 132.152 57.453 132.207 57.2631C132.795 57.1976 133.379 57.1297 133.956 57.0597Z" fill="white"/>
<path opacity="0.96" fill-rule="evenodd" clip-rule="evenodd" d="M87.4867 68C87.2698 68 87.0525 68 86.8357 68C86.4536 67.9207 86.135 67.7307 85.8794 67.4306C85.6719 66.9417 85.8143 66.596 86.3067 66.3935C86.9903 66.2101 87.5531 66.3931 87.9954 66.9426C88.6338 66.2898 89.0883 65.5236 89.3585 64.6447C88.4592 62.3892 87.564 60.132 86.6729 57.8732C86.3946 57.789 86.1097 57.7345 85.8184 57.7105C85.8184 57.5206 85.8184 57.331 85.8184 57.1411C87.0391 57.1411 88.2599 57.1411 89.4806 57.1411C89.4928 57.3416 89.4794 57.5381 89.4399 57.7308C89.0188 57.7768 88.5984 57.8244 88.1785 57.8732C88.7697 59.5439 89.3732 61.2114 89.9892 62.8756C90.5968 61.2231 91.2006 59.5691 91.8 57.9138C91.3687 57.8309 90.9345 57.763 90.4979 57.7105C90.4979 57.5206 90.4979 57.331 90.4979 57.1411C91.4879 57.1411 92.4783 57.1411 93.4684 57.1411C93.4818 57.3327 93.468 57.5226 93.4277 57.7105C93.2128 57.7658 92.9959 57.813 92.7766 57.8528C92.7131 57.8659 92.6655 57.8996 92.6342 57.9545C91.7142 60.4146 90.7783 62.8682 89.8265 65.3158C89.5364 65.9775 89.1836 66.6013 88.7685 67.1866C88.4182 67.588 87.9909 67.8592 87.4867 68Z" fill="white"/>
</svg>
