<svg width="2443" height="1240" viewBox="0 0 2443 1240" fill="none" xmlns="http://www.w3.org/2000/svg">
<path fill-rule="evenodd" clip-rule="evenodd" d="M2442.5 0H0V1239.5H2442.5V0ZM2069.62 261.065L2069.62 990.707V990.788C2069.62 998.756 2078.72 1002.94 2085.05 998.112C2177.22 925.671 2239.59 786.262 2239.59 626.007C2239.59 465.751 2177.22 326.101 2085.05 253.741C2078.72 248.911 2069.62 253.097 2069.62 261.065ZM1716.28 199.172C1716.28 193.865 1720.65 189.522 1725.99 189.683C1897.78 196.519 2035.33 386.388 2035.33 619.28C2035.33 852.173 1897.62 1041.96 1725.99 1048.88C1720.65 1049.04 1716.28 1044.7 1716.28 1039.39V199.172ZM1239.93 188.203C995.723 188.203 797.873 381.187 797.873 619.281C797.873 857.375 995.723 1050.36 1239.93 1050.36C1484.14 1050.36 1681.99 857.375 1681.99 619.281C1681.99 381.187 1484.14 188.203 1239.93 188.203ZM753.855 1048.88C759.204 1049.04 763.581 1044.7 763.581 1039.39V1039.23L763.581 199.173C763.581 193.865 759.204 189.522 753.855 189.683C574.812 196.277 431.107 386.227 431.107 619.28C431.107 852.334 574.568 1042.2 753.855 1048.88ZM396.811 262.541L396.811 992.26C396.811 1000.23 387.716 1004.42 381.382 999.586C289.213 927.21 226.846 787.691 226.846 627.401C226.846 467.111 289.213 327.672 381.382 255.215C387.716 250.385 396.811 254.571 396.811 262.541Z" fill="black"/>
</svg>
