 <svg 
    width="277" 
    height="44" 
    viewBox="0 0 277 44" 
    fill="none" 
    xmlns="http://www.w3.org/2000/svg"
  >
    <g clip-path="url(#clip0_3224_13089)">
      <path 
        fill-rule="evenodd" 
        clip-rule="evenodd" 
        d="M99.0973 8.49894C99.0973 6.74937 100.49 5.33203 102.209 5.33203C103.926 5.33203 105.321 6.74937 105.321 8.49894V8.73929C105.321 10.4889 103.928 11.9062 102.209 11.9062C100.49 11.9062 99.0973 10.4889 99.0973 8.73929V8.49894ZM99.7172 35.6934V14.7479H104.739V35.6934H99.7172ZM106.92 28.7111C107.165 33.1999 110.473 36.0257 115.454 36.0257C120.271 36.0257 123.416 33.4491 123.416 29.501C123.416 23.8985 119.419 23.3517 116.152 22.9046C113.893 22.5956 111.983 22.3342 111.983 20.4827C111.983 19.0689 113.166 18.2383 114.963 18.2383C116.555 18.2383 118.311 19.2368 118.597 21.1896H123.171C122.966 17.1161 119.66 14.4158 114.841 14.4158C110.596 14.4158 107.451 16.9924 107.451 20.6489C107.451 25.7788 111.237 26.4414 114.421 26.9985C116.729 27.4025 118.72 27.751 118.72 29.7078C118.72 30.9555 117.415 31.9522 115.454 31.9522C113.209 31.9522 111.698 30.7063 111.494 28.7111H106.92ZM133.129 36.0257C128.147 36.0257 124.84 33.1999 124.595 28.7111H129.168C129.373 30.7063 130.884 31.9522 133.129 31.9522C135.09 31.9522 136.395 30.9555 136.395 29.7078C136.395 27.751 134.404 27.4025 132.095 26.9985C128.912 26.4414 125.126 25.7788 125.126 20.6489C125.126 16.9924 128.271 14.4158 132.516 14.4158C137.335 14.4158 140.641 17.1161 140.846 21.1896H136.272C135.986 19.2368 134.23 18.2383 132.638 18.2383C130.841 18.2383 129.658 19.0689 129.658 20.4827C129.658 22.3342 131.568 22.5956 133.827 22.9046C137.094 23.3517 141.091 23.8985 141.091 29.501C141.091 33.4491 137.946 36.0257 133.129 36.0257ZM150.577 25.2207C150.577 31.4538 155.069 36.0257 161.356 36.0257C167.602 36.0257 172.094 31.4538 172.094 25.2207C172.094 18.9876 167.644 14.4158 161.356 14.4158C155.069 14.4158 150.577 18.9876 150.577 25.2207ZM167.033 25.2207C167.033 29.0027 164.746 31.62 161.356 31.62C157.927 31.62 155.64 29.0027 155.64 25.2207C155.64 21.4388 157.967 18.8215 161.356 18.8215C164.746 18.8215 167.033 21.4388 167.033 25.2207ZM174.26 14.7497V35.6934L174.261 35.6969H179.283V24.2681C179.283 21.1931 181.243 18.9487 184.06 18.9487C186.632 18.9487 188.347 20.9422 188.347 23.8104V35.6952H193.369V22.7289C193.369 17.8248 190.347 14.4175 185.692 14.4175C182.752 14.4175 180.424 15.7058 179.281 17.9909V14.7497H174.26ZM66.1836 6.60431V35.6933H71.2452V16.4108L79.0435 35.6933H83.1275L90.8858 16.4108V35.6933H95.9492V6.60431H89.7432L81.0872 28.0888L72.4312 6.60431H66.1836ZM142.779 8.49894C142.779 6.74937 144.171 5.33203 145.89 5.33203C147.607 5.33203 149.002 6.74937 149.002 8.49894V8.73929C149.002 10.4889 147.609 11.9062 145.89 11.9062C144.171 11.9062 142.779 10.4889 142.779 8.73929V8.49894ZM143.398 35.6934V14.7479H148.42V35.6934H143.398ZM197.741 35.3063V30.6107L213.584 10.913H198.557V6.21738H219.627V10.913L203.947 30.6107H219.627V35.3063H197.741ZM265.218 35.6384C258.93 35.6384 254.438 31.0665 254.438 24.8335C254.438 18.6004 258.93 14.0285 265.218 14.0285C271.505 14.0285 275.956 18.6004 275.956 24.8335C275.956 31.0665 271.464 35.6384 265.218 35.6384ZM265.218 31.2327C268.607 31.2327 270.894 28.6154 270.894 24.8335C270.894 21.0515 268.607 18.4342 265.218 18.4342C261.828 18.4342 259.502 21.0515 259.502 24.8335C259.502 28.6154 261.789 31.2327 265.218 31.2327ZM254.631 18.6412H251.405C248.22 18.6412 246.954 21.4246 246.954 25.415V35.3063H241.933V14.3609H246.954V18.0597C247.975 15.4 249.568 14.3609 252.221 14.3609H254.631V18.6412ZM239.776 28.3258H234.876V28.3276C234.345 30.3228 232.671 31.4026 230.099 31.4026C226.913 31.4026 224.791 29.2413 224.423 25.8747H239.613C239.654 25.4576 239.694 24.8355 239.694 24.1286C239.694 19.1415 236.428 14.0306 229.691 14.0306C222.954 14.0306 219.606 19.2669 219.606 24.7525C219.606 30.238 223.362 35.6405 230.099 35.6405C235.162 35.6405 239 32.7723 239.776 28.3258ZM224.546 22.5081C225.077 19.35 226.874 17.8531 229.691 17.8531C232.672 17.8531 234.47 19.8483 234.673 22.5081H224.546Z" 
        fill="currentColor"
      />
      <path 
        fill-rule="evenodd" 
        clip-rule="evenodd" 
        d="M50.8959 9.78011V15.7819C50.8959 15.9197 50.7052 15.9436 50.6711 15.8113C49.3223 10.6018 46.1069 6.88126 42.3197 6.66068C42.1255 6.64964 41.9636 6.80773 41.9636 7.00626V17.0429C41.9636 17.1771 41.7766 17.2065 41.7388 17.076C39.9711 11.0466 34.5024 6.65332 28.0248 6.65332C21.5473 6.65332 16.0786 11.0466 14.3108 17.0778C14.273 17.2065 14.086 17.1789 14.086 17.0447V7.01729C14.086 6.81876 13.9242 6.66068 13.7299 6.6717C9.94088 6.89229 6.72728 10.6147 5.38034 15.826C5.34617 15.9583 5.15555 15.9344 5.15555 15.7966V8.83527C5.15555 8.52829 4.79049 8.37205 4.57829 8.58895C2.03186 11.2029 0.348633 15.6991 0.348633 20.813C0.348633 25.9251 2.03186 30.4232 4.57829 33.0371C4.79049 33.2559 5.15555 33.0978 5.15555 32.7908V26.7891C5.15555 26.6512 5.34617 26.6273 5.38034 26.7597C6.72728 31.9691 9.94268 35.6897 13.7299 35.9103C13.9242 35.9213 14.086 35.7632 14.086 35.5647V25.528C14.086 25.3939 14.273 25.3644 14.3108 25.495C16.0786 31.5261 21.549 35.9194 28.0248 35.9194C34.5006 35.9194 39.9711 31.5261 41.7388 25.495C41.7766 25.3663 41.9636 25.3939 41.9636 25.528V35.5555C41.9636 35.754 42.1255 35.9121 42.3197 35.9011C46.1087 35.6805 49.3223 31.9581 50.6693 26.7468C50.7034 26.6144 50.8941 26.6383 50.8941 26.7762V33.7375C50.8941 34.0445 51.2591 34.2007 51.4713 33.9838C54.0196 31.3699 55.701 26.8718 55.701 21.7597C55.701 16.6477 54.0177 12.1496 51.4713 9.53563C51.2591 9.31689 50.8941 9.47497 50.8941 9.78195L50.8959 9.78011Z" 
        fill="currentColor"
      />
    </g>
    <defs>
      <clipPath id="clip0_3224_13089">
        <rect width="277" height="44" fill="white"/>
      </clipPath>
    </defs>
  </svg>