<svg width="1089" height="612" viewBox="0 0 1089 612" fill="none" xmlns="http://www.w3.org/2000/svg">
<path d="M1076.24 308.438H13.2188V582.524H1076.24V308.438Z" stroke="#D4CDC5" stroke-width="1.5" stroke-miterlimit="10"/>
<path d="M1087.86 260.094H1.57812V308.446H1087.86V260.094Z" stroke="#D4CDC5" stroke-width="1.5" stroke-miterlimit="10"/>
<path d="M1076.24 582.516H13.2188V594.306H1076.24V582.516Z" stroke="#D4CDC5" stroke-width="1.5" stroke-miterlimit="10"/>
<path d="M13.2188 308.438V582.524" stroke="#D4CDC5" stroke-width="1.5" stroke-miterlimit="10"/>
<path d="M34.0508 308.438V582.524" stroke="#D4CDC5" stroke-width="1.5" stroke-miterlimit="10"/>
<path d="M54.9102 308.438V582.524" stroke="#D4CDC5" stroke-width="1.5" stroke-miterlimit="10"/>
<path d="M75.75 308.438V582.524" stroke="#D4CDC5" stroke-width="1.5" stroke-miterlimit="10"/>
<path d="M96.5781 308.438V582.524" stroke="#D4CDC5" stroke-width="1.5" stroke-miterlimit="10"/>
<path d="M117.438 308.438V582.524" stroke="#D4CDC5" stroke-width="1.5" stroke-miterlimit="10"/>
<path d="M138.273 308.438V582.524" stroke="#D4CDC5" stroke-width="1.5" stroke-miterlimit="10"/>
<path d="M159.133 308.438V582.524" stroke="#D4CDC5" stroke-width="1.5" stroke-miterlimit="10"/>
<path d="M179.961 308.438V582.524" stroke="#D4CDC5" stroke-width="1.5" stroke-miterlimit="10"/>
<path d="M200.801 308.438V582.524" stroke="#D4CDC5" stroke-width="1.5" stroke-miterlimit="10"/>
<path d="M221.652 308.438V582.524" stroke="#D4CDC5" stroke-width="1.5" stroke-miterlimit="10"/>
<path d="M242.488 308.438V582.524" stroke="#D4CDC5" stroke-width="1.5" stroke-miterlimit="10"/>
<path d="M263.344 308.438V582.524" stroke="#D4CDC5" stroke-width="1.5" stroke-miterlimit="10"/>
<path d="M284.18 308.438V582.524" stroke="#D4CDC5" stroke-width="1.5" stroke-miterlimit="10"/>
<path d="M305.012 308.438V582.524" stroke="#D4CDC5" stroke-width="1.5" stroke-miterlimit="10"/>
<path d="M325.871 308.438V582.524" stroke="#D4CDC5" stroke-width="1.5" stroke-miterlimit="10"/>
<path d="M346.699 308.438V582.524" stroke="#D4CDC5" stroke-width="1.5" stroke-miterlimit="10"/>
<path d="M367.562 308.438V582.524" stroke="#D4CDC5" stroke-width="1.5" stroke-miterlimit="10"/>
<path d="M388.391 308.438V582.524" stroke="#D4CDC5" stroke-width="1.5" stroke-miterlimit="10"/>
<path d="M409.23 308.438V582.524" stroke="#D4CDC5" stroke-width="1.5" stroke-miterlimit="10"/>
<path d="M430.09 308.438V582.524" stroke="#D4CDC5" stroke-width="1.5" stroke-miterlimit="10"/>
<path d="M450.918 308.438V582.524" stroke="#D4CDC5" stroke-width="1.5" stroke-miterlimit="10"/>
<path d="M471.777 308.438V582.524" stroke="#D4CDC5" stroke-width="1.5" stroke-miterlimit="10"/>
<path d="M492.613 308.438V582.524" stroke="#D4CDC5" stroke-width="1.5" stroke-miterlimit="10"/>
<path d="M513.445 308.438V582.524" stroke="#D4CDC5" stroke-width="1.5" stroke-miterlimit="10"/>
<path d="M534.301 308.438V582.524" stroke="#D4CDC5" stroke-width="1.5" stroke-miterlimit="10"/>
<path d="M555.137 308.438V582.524" stroke="#D4CDC5" stroke-width="1.5" stroke-miterlimit="10"/>
<path d="M575.992 308.438V582.524" stroke="#D4CDC5" stroke-width="1.5" stroke-miterlimit="10"/>
<path d="M596.832 308.438V582.524" stroke="#D4CDC5" stroke-width="1.5" stroke-miterlimit="10"/>
<path d="M617.66 308.438V582.524" stroke="#D4CDC5" stroke-width="1.5" stroke-miterlimit="10"/>
<path d="M638.52 308.438V582.524" stroke="#D4CDC5" stroke-width="1.5" stroke-miterlimit="10"/>
<path d="M659.352 308.438V582.524" stroke="#D4CDC5" stroke-width="1.5" stroke-miterlimit="10"/>
<path d="M680.211 308.438V582.524" stroke="#D4CDC5" stroke-width="1.5" stroke-miterlimit="10"/>
<path d="M701.043 308.438V582.524" stroke="#D4CDC5" stroke-width="1.5" stroke-miterlimit="10"/>
<path d="M721.879 308.438V582.524" stroke="#D4CDC5" stroke-width="1.5" stroke-miterlimit="10"/>
<path d="M742.734 308.438V582.524" stroke="#D4CDC5" stroke-width="1.5" stroke-miterlimit="10"/>
<path d="M763.57 308.438V582.524" stroke="#D4CDC5" stroke-width="1.5" stroke-miterlimit="10"/>
<path d="M784.426 308.438V582.524" stroke="#D4CDC5" stroke-width="1.5" stroke-miterlimit="10"/>
<path d="M805.262 308.438V582.524" stroke="#D4CDC5" stroke-width="1.5" stroke-miterlimit="10"/>
<path d="M826.117 308.438V582.524" stroke="#D4CDC5" stroke-width="1.5" stroke-miterlimit="10"/>
<path d="M846.953 308.438V582.524" stroke="#D4CDC5" stroke-width="1.5" stroke-miterlimit="10"/>
<path d="M867.789 308.438V582.524" stroke="#D4CDC5" stroke-width="1.5" stroke-miterlimit="10"/>
<path d="M888.641 308.438V582.524" stroke="#D4CDC5" stroke-width="1.5" stroke-miterlimit="10"/>
<path d="M909.477 308.438V582.524" stroke="#D4CDC5" stroke-width="1.5" stroke-miterlimit="10"/>
<path d="M930.328 308.438V582.524" stroke="#D4CDC5" stroke-width="1.5" stroke-miterlimit="10"/>
<path d="M951.164 308.438V582.524" stroke="#D4CDC5" stroke-width="1.5" stroke-miterlimit="10"/>
<path d="M972.004 308.438V582.524" stroke="#D4CDC5" stroke-width="1.5" stroke-miterlimit="10"/>
<path d="M992.855 308.438V582.524" stroke="#D4CDC5" stroke-width="1.5" stroke-miterlimit="10"/>
<path d="M1013.69 308.438V582.524" stroke="#D4CDC5" stroke-width="1.5" stroke-miterlimit="10"/>
<path d="M1034.55 308.438V582.524" stroke="#D4CDC5" stroke-width="1.5" stroke-miterlimit="10"/>
<path d="M1055.38 308.438V582.524" stroke="#D4CDC5" stroke-width="1.5" stroke-miterlimit="10"/>
<path d="M1076.22 308.438V582.524" stroke="#D4CDC5" stroke-width="1.5" stroke-miterlimit="10"/>
<path d="M13.2192 308.438H1.57812V610.429H13.2192V308.438Z" stroke="#D4CDC5" stroke-width="1.5" stroke-miterlimit="10"/>
<path d="M1087.86 308.438H1076.22V610.429H1087.86V308.438Z" stroke="#D4CDC5" stroke-width="1.5" stroke-miterlimit="10"/>
<path d="M260.934 1H66.5898V249.293H260.934V1Z" stroke="#D4CDC5" stroke-width="1.5" stroke-miterlimit="10"/>
<path d="M270.893 13.8203H260.934V30.4413H270.893V13.8203Z" stroke="#D4CDC5" stroke-width="1.5" stroke-miterlimit="10"/>
<path d="M275.874 9.85156H270.895V34.4531H275.874V9.85156Z" stroke="#D4CDC5" stroke-width="1.5" stroke-miterlimit="10"/>
<path d="M270.893 218.516H260.934V235.137H270.893V218.516Z" stroke="#D4CDC5" stroke-width="1.5" stroke-miterlimit="10"/>
<path d="M275.874 214.547H270.895V239.148H275.874V214.547Z" stroke="#D4CDC5" stroke-width="1.5" stroke-miterlimit="10"/>
<path d="M56.6144 30.4531H66.5742V13.8322H56.6144V30.4531Z" stroke="#D4CDC5" stroke-width="1.5" stroke-miterlimit="10"/>
<path d="M51.6373 34.4375H56.6172V9.83593H51.6373V34.4375Z" stroke="#D4CDC5" stroke-width="1.5" stroke-miterlimit="10"/>
<path d="M56.6144 235.141H66.5742V218.52H56.6144V235.141Z" stroke="#D4CDC5" stroke-width="1.5" stroke-miterlimit="10"/>
<path d="M51.6373 239.125H56.6172V214.523H51.6373V239.125Z" stroke="#D4CDC5" stroke-width="1.5" stroke-miterlimit="10"/>
<path d="M159.824 22.1406H75.5703V106.395H159.824V22.1406Z" stroke="#D4CDC5" stroke-width="1.5" stroke-miterlimit="10"/>
<path d="M251.93 22.1406H167.676V106.395H251.93V22.1406Z" stroke="#D4CDC5" stroke-width="1.5" stroke-miterlimit="10"/>
<path d="M117.712 100.604C137.787 100.604 154.061 84.3303 154.061 64.2553C154.061 44.1803 137.787 27.9062 117.712 27.9062C97.6373 27.9062 81.3633 44.1803 81.3633 64.2553C81.3633 84.3303 97.6373 100.604 117.712 100.604Z" stroke="#D4CDC5" stroke-width="1.5" stroke-miterlimit="10"/>
<path d="M117.71 76.4591C124.445 76.4591 129.904 70.9995 129.904 64.2647C129.904 57.5299 124.445 52.0703 117.71 52.0703C110.975 52.0703 105.516 57.5299 105.516 64.2647C105.516 70.9995 110.975 76.4591 117.71 76.4591Z" stroke="#D4CDC5" stroke-width="1.5" stroke-miterlimit="10"/>
<path d="M209.794 100.604C229.869 100.604 246.143 84.3303 246.143 64.2553C246.143 44.1803 229.869 27.9062 209.794 27.9062C189.719 27.9062 173.445 44.1803 173.445 64.2553C173.445 84.3303 189.719 100.604 209.794 100.604Z" stroke="#D4CDC5" stroke-width="1.5" stroke-miterlimit="10"/>
<path d="M209.792 76.4591C216.527 76.4591 221.986 70.9995 221.986 64.2647C221.986 57.5299 216.527 52.0703 209.792 52.0703C203.057 52.0703 197.598 57.5299 197.598 64.2647C197.598 70.9995 203.057 76.4591 209.792 76.4591Z" stroke="#D4CDC5" stroke-width="1.5" stroke-miterlimit="10"/>
<path d="M159.824 114.625H75.5703V198.879H159.824V114.625Z" stroke="#D4CDC5" stroke-width="1.5" stroke-miterlimit="10"/>
<path d="M251.93 114.625H167.676V198.879H251.93V114.625Z" stroke="#D4CDC5" stroke-width="1.5" stroke-miterlimit="10"/>
<path d="M117.712 193.112C137.787 193.112 154.061 176.838 154.061 156.763C154.061 136.688 137.787 120.414 117.712 120.414C97.6373 120.414 81.3633 136.688 81.3633 156.763C81.3633 176.838 97.6373 193.112 117.712 193.112Z" stroke="#D4CDC5" stroke-width="1.5" stroke-miterlimit="10"/>
<path d="M117.71 168.959C124.445 168.959 129.904 163.499 129.904 156.765C129.904 150.03 124.445 144.57 117.71 144.57C110.975 144.57 105.516 150.03 105.516 156.765C105.516 163.499 110.975 168.959 117.71 168.959Z" stroke="#D4CDC5" stroke-width="1.5" stroke-miterlimit="10"/>
<path d="M209.794 193.112C229.869 193.112 246.143 176.838 246.143 156.763C246.143 136.688 229.869 120.414 209.794 120.414C189.719 120.414 173.445 136.688 173.445 156.763C173.445 176.838 189.719 193.112 209.794 193.112Z" stroke="#D4CDC5" stroke-width="1.5" stroke-miterlimit="10"/>
<path d="M209.792 168.959C216.527 168.959 221.986 163.499 221.986 156.765C221.986 150.03 216.527 144.57 209.792 144.57C203.057 144.57 197.598 150.03 197.598 156.765C197.598 163.499 203.057 168.959 209.792 168.959Z" stroke="#D4CDC5" stroke-width="1.5" stroke-miterlimit="10"/>
<path d="M92.0001 249.297H66.5898V259.64H92.0001V249.297Z" stroke="#D4CDC5" stroke-width="1.5" stroke-miterlimit="10"/>
<path d="M260.938 249.297H235.527V259.64H260.938V249.297Z" stroke="#D4CDC5" stroke-width="1.5" stroke-miterlimit="10"/>
<path d="M514.891 1H320.547V249.293H514.891V1Z" stroke="#D4CDC5" stroke-width="1.5" stroke-miterlimit="10"/>
<path d="M524.87 13.8203H514.91V30.4413H524.87V13.8203Z" stroke="#D4CDC5" stroke-width="1.5" stroke-miterlimit="10"/>
<path d="M529.851 9.85156H524.871V34.4531H529.851V9.85156Z" stroke="#D4CDC5" stroke-width="1.5" stroke-miterlimit="10"/>
<path d="M524.87 218.516H514.91V235.137H524.87V218.516Z" stroke="#D4CDC5" stroke-width="1.5" stroke-miterlimit="10"/>
<path d="M529.851 214.547H524.871V239.148H529.851V214.547Z" stroke="#D4CDC5" stroke-width="1.5" stroke-miterlimit="10"/>
<path d="M310.599 30.4531H320.559V13.8322H310.599V30.4531Z" stroke="#D4CDC5" stroke-width="1.5" stroke-miterlimit="10"/>
<path d="M305.598 34.4375H310.578V9.83593H305.598V34.4375Z" stroke="#D4CDC5" stroke-width="1.5" stroke-miterlimit="10"/>
<path d="M310.599 235.141H320.559V218.52H310.599V235.141Z" stroke="#D4CDC5" stroke-width="1.5" stroke-miterlimit="10"/>
<path d="M305.598 239.125H310.578V214.523H305.598V239.125Z" stroke="#D4CDC5" stroke-width="1.5" stroke-miterlimit="10"/>
<path d="M413.797 22.1406H329.543V106.395H413.797V22.1406Z" stroke="#D4CDC5" stroke-width="1.5" stroke-miterlimit="10"/>
<path d="M505.902 22.1406H421.648V106.395H505.902V22.1406Z" stroke="#D4CDC5" stroke-width="1.5" stroke-miterlimit="10"/>
<path d="M371.685 100.604C391.76 100.604 408.034 84.3303 408.034 64.2553C408.034 44.1803 391.76 27.9062 371.685 27.9062C351.61 27.9062 335.336 44.1803 335.336 64.2553C335.336 84.3303 351.61 100.604 371.685 100.604Z" stroke="#D4CDC5" stroke-width="1.5" stroke-miterlimit="10"/>
<path d="M371.683 76.4591C378.417 76.4591 383.877 70.9995 383.877 64.2647C383.877 57.5299 378.417 52.0703 371.683 52.0703C364.948 52.0703 359.488 57.5299 359.488 64.2647C359.488 70.9995 364.948 76.4591 371.683 76.4591Z" stroke="#D4CDC5" stroke-width="1.5" stroke-miterlimit="10"/>
<path d="M463.767 100.604C483.842 100.604 500.116 84.3303 500.116 64.2553C500.116 44.1803 483.842 27.9062 463.767 27.9062C443.692 27.9062 427.418 44.1803 427.418 64.2553C427.418 84.3303 443.692 100.604 463.767 100.604Z" stroke="#D4CDC5" stroke-width="1.5" stroke-miterlimit="10"/>
<path d="M463.772 76.4591C470.507 76.4591 475.967 70.9995 475.967 64.2647C475.967 57.5299 470.507 52.0703 463.772 52.0703C457.038 52.0703 451.578 57.5299 451.578 64.2647C451.578 70.9995 457.038 76.4591 463.772 76.4591Z" stroke="#D4CDC5" stroke-width="1.5" stroke-miterlimit="10"/>
<path d="M413.797 114.625H329.543V198.879H413.797V114.625Z" stroke="#D4CDC5" stroke-width="1.5" stroke-miterlimit="10"/>
<path d="M505.902 114.625H421.648V198.879H505.902V114.625Z" stroke="#D4CDC5" stroke-width="1.5" stroke-miterlimit="10"/>
<path d="M371.685 193.112C391.76 193.112 408.034 176.838 408.034 156.763C408.034 136.688 391.76 120.414 371.685 120.414C351.61 120.414 335.336 136.688 335.336 156.763C335.336 176.838 351.61 193.112 371.685 193.112Z" stroke="#D4CDC5" stroke-width="1.5" stroke-miterlimit="10"/>
<path d="M371.683 168.959C378.417 168.959 383.877 163.499 383.877 156.765C383.877 150.03 378.417 144.57 371.683 144.57C364.948 144.57 359.488 150.03 359.488 156.765C359.488 163.499 364.948 168.959 371.683 168.959Z" stroke="#D4CDC5" stroke-width="1.5" stroke-miterlimit="10"/>
<path d="M463.767 193.112C483.842 193.112 500.116 176.838 500.116 156.763C500.116 136.688 483.842 120.414 463.767 120.414C443.692 120.414 427.418 136.688 427.418 156.763C427.418 176.838 443.692 193.112 463.767 193.112Z" stroke="#D4CDC5" stroke-width="1.5" stroke-miterlimit="10"/>
<path d="M463.772 168.959C470.507 168.959 475.967 163.499 475.967 156.765C475.967 150.03 470.507 144.57 463.772 144.57C457.038 144.57 451.578 150.03 451.578 156.765C451.578 163.499 457.038 168.959 463.772 168.959Z" stroke="#D4CDC5" stroke-width="1.5" stroke-miterlimit="10"/>
<path d="M345.957 249.297H320.547V259.64H345.957V249.297Z" stroke="#D4CDC5" stroke-width="1.5" stroke-miterlimit="10"/>
<path d="M514.914 249.297H489.504V259.64H514.914V249.297Z" stroke="#D4CDC5" stroke-width="1.5" stroke-miterlimit="10"/>
<path d="M768.863 1H574.52V249.293H768.863V1Z" stroke="#D4CDC5" stroke-width="1.5" stroke-miterlimit="10"/>
<path d="M778.843 13.8203H768.883V30.4413H778.843V13.8203Z" stroke="#D4CDC5" stroke-width="1.5" stroke-miterlimit="10"/>
<path d="M783.824 9.85156H778.844V34.4531H783.824V9.85156Z" stroke="#D4CDC5" stroke-width="1.5" stroke-miterlimit="10"/>
<path d="M778.843 218.516H768.883V235.137H778.843V218.516Z" stroke="#D4CDC5" stroke-width="1.5" stroke-miterlimit="10"/>
<path d="M783.824 214.547H778.844V239.148H783.824V214.547Z" stroke="#D4CDC5" stroke-width="1.5" stroke-miterlimit="10"/>
<path d="M564.579 30.4531H574.539V13.8322H564.579V30.4531Z" stroke="#D4CDC5" stroke-width="1.5" stroke-miterlimit="10"/>
<path d="M559.602 34.4375H564.582V9.83593H559.602V34.4375Z" stroke="#D4CDC5" stroke-width="1.5" stroke-miterlimit="10"/>
<path d="M564.579 235.141H574.539V218.52H564.579V235.141Z" stroke="#D4CDC5" stroke-width="1.5" stroke-miterlimit="10"/>
<path d="M559.602 239.125H564.582V214.523H559.602V239.125Z" stroke="#D4CDC5" stroke-width="1.5" stroke-miterlimit="10"/>
<path d="M667.774 22.1406H583.52V106.395H667.774V22.1406Z" stroke="#D4CDC5" stroke-width="1.5" stroke-miterlimit="10"/>
<path d="M759.879 22.1406H675.625V106.395H759.879V22.1406Z" stroke="#D4CDC5" stroke-width="1.5" stroke-miterlimit="10"/>
<path d="M625.658 100.604C645.733 100.604 662.007 84.3303 662.007 64.2553C662.007 44.1803 645.733 27.9062 625.658 27.9062C605.583 27.9062 589.309 44.1803 589.309 64.2553C589.309 84.3303 605.583 100.604 625.658 100.604Z" stroke="#D4CDC5" stroke-width="1.5" stroke-miterlimit="10"/>
<path d="M625.663 76.4591C632.398 76.4591 637.858 70.9995 637.858 64.2647C637.858 57.5299 632.398 52.0703 625.663 52.0703C618.928 52.0703 613.469 57.5299 613.469 64.2647C613.469 70.9995 618.928 76.4591 625.663 76.4591Z" stroke="#D4CDC5" stroke-width="1.5" stroke-miterlimit="10"/>
<path d="M717.747 100.604C737.822 100.604 754.097 84.3303 754.097 64.2553C754.097 44.1803 737.822 27.9062 717.747 27.9062C697.672 27.9062 681.398 44.1803 681.398 64.2553C681.398 84.3303 697.672 100.604 717.747 100.604Z" stroke="#D4CDC5" stroke-width="1.5" stroke-miterlimit="10"/>
<path d="M717.745 76.4591C724.48 76.4591 729.94 70.9995 729.94 64.2647C729.94 57.5299 724.48 52.0703 717.745 52.0703C711.01 52.0703 705.551 57.5299 705.551 64.2647C705.551 70.9995 711.01 76.4591 717.745 76.4591Z" stroke="#D4CDC5" stroke-width="1.5" stroke-miterlimit="10"/>
<path d="M667.774 114.625H583.52V198.879H667.774V114.625Z" stroke="#D4CDC5" stroke-width="1.5" stroke-miterlimit="10"/>
<path d="M759.879 114.625H675.625V198.879H759.879V114.625Z" stroke="#D4CDC5" stroke-width="1.5" stroke-miterlimit="10"/>
<path d="M625.658 193.112C645.733 193.112 662.007 176.838 662.007 156.763C662.007 136.688 645.733 120.414 625.658 120.414C605.583 120.414 589.309 136.688 589.309 156.763C589.309 176.838 605.583 193.112 625.658 193.112Z" stroke="#D4CDC5" stroke-width="1.5" stroke-miterlimit="10"/>
<path d="M625.663 168.959C632.398 168.959 637.858 163.499 637.858 156.765C637.858 150.03 632.398 144.57 625.663 144.57C618.928 144.57 613.469 150.03 613.469 156.765C613.469 163.499 618.928 168.959 625.663 168.959Z" stroke="#D4CDC5" stroke-width="1.5" stroke-miterlimit="10"/>
<path d="M717.747 193.112C737.822 193.112 754.097 176.838 754.097 156.763C754.097 136.688 737.822 120.414 717.747 120.414C697.672 120.414 681.398 136.688 681.398 156.763C681.398 176.838 697.672 193.112 717.747 193.112Z" stroke="#D4CDC5" stroke-width="1.5" stroke-miterlimit="10"/>
<path d="M717.745 168.959C724.48 168.959 729.94 163.499 729.94 156.765C729.94 150.03 724.48 144.57 717.745 144.57C711.01 144.57 705.551 150.03 705.551 156.765C705.551 163.499 711.01 168.959 717.745 168.959Z" stroke="#D4CDC5" stroke-width="1.5" stroke-miterlimit="10"/>
<path d="M599.93 249.297H574.52V259.64H599.93V249.297Z" stroke="#D4CDC5" stroke-width="1.5" stroke-miterlimit="10"/>
<path d="M768.887 249.297H743.477V259.64H768.887V249.297Z" stroke="#D4CDC5" stroke-width="1.5" stroke-miterlimit="10"/>
<path d="M1022.84 1H828.496V249.293H1022.84V1Z" stroke="#D4CDC5" stroke-width="1.5" stroke-miterlimit="10"/>
<path d="M1032.82 13.8203H1022.86V30.4413H1032.82V13.8203Z" stroke="#D4CDC5" stroke-width="1.5" stroke-miterlimit="10"/>
<path d="M1037.8 9.85156H1032.82V34.4531H1037.8V9.85156Z" stroke="#D4CDC5" stroke-width="1.5" stroke-miterlimit="10"/>
<path d="M1032.82 218.516H1022.86V235.137H1032.82V218.516Z" stroke="#D4CDC5" stroke-width="1.5" stroke-miterlimit="10"/>
<path d="M1037.8 214.547H1032.82V239.148H1037.8V214.547Z" stroke="#D4CDC5" stroke-width="1.5" stroke-miterlimit="10"/>
<path d="M818.54 30.4531H828.5V13.8322H818.54V30.4531Z" stroke="#D4CDC5" stroke-width="1.5" stroke-miterlimit="10"/>
<path d="M813.579 34.4375H818.559V9.83593H813.579V34.4375Z" stroke="#D4CDC5" stroke-width="1.5" stroke-miterlimit="10"/>
<path d="M818.54 235.141H828.5V218.52H818.54V235.141Z" stroke="#D4CDC5" stroke-width="1.5" stroke-miterlimit="10"/>
<path d="M813.579 239.125H818.559V214.523H813.579V239.125Z" stroke="#D4CDC5" stroke-width="1.5" stroke-miterlimit="10"/>
<path d="M921.75 22.1406H837.496V106.395H921.75V22.1406Z" stroke="#D4CDC5" stroke-width="1.5" stroke-miterlimit="10"/>
<path d="M1013.86 22.1406H929.602V106.395H1013.86V22.1406Z" stroke="#D4CDC5" stroke-width="1.5" stroke-miterlimit="10"/>
<path d="M879.634 100.604C899.709 100.604 915.983 84.3303 915.983 64.2553C915.983 44.1803 899.709 27.9062 879.634 27.9062C859.559 27.9062 843.285 44.1803 843.285 64.2553C843.285 84.3303 859.559 100.604 879.634 100.604Z" stroke="#D4CDC5" stroke-width="1.5" stroke-miterlimit="10"/>
<path d="M879.636 76.4591C886.371 76.4591 891.83 70.9995 891.83 64.2647C891.83 57.5299 886.371 52.0703 879.636 52.0703C872.901 52.0703 867.441 57.5299 867.441 64.2647C867.441 70.9995 872.901 76.4591 879.636 76.4591Z" stroke="#D4CDC5" stroke-width="1.5" stroke-miterlimit="10"/>
<path d="M971.72 100.604C991.795 100.604 1008.07 84.3303 1008.07 64.2553C1008.07 44.1803 991.795 27.9062 971.72 27.9062C951.645 27.9062 935.371 44.1803 935.371 64.2553C935.371 84.3303 951.645 100.604 971.72 100.604Z" stroke="#D4CDC5" stroke-width="1.5" stroke-miterlimit="10"/>
<path d="M971.718 76.4591C978.453 76.4591 983.912 70.9995 983.912 64.2647C983.912 57.5299 978.453 52.0703 971.718 52.0703C964.983 52.0703 959.523 57.5299 959.523 64.2647C959.523 70.9995 964.983 76.4591 971.718 76.4591Z" stroke="#D4CDC5" stroke-width="1.5" stroke-miterlimit="10"/>
<path d="M921.75 114.625H837.496V198.879H921.75V114.625Z" stroke="#D4CDC5" stroke-width="1.5" stroke-miterlimit="10"/>
<path d="M1013.86 114.625H929.602V198.879H1013.86V114.625Z" stroke="#D4CDC5" stroke-width="1.5" stroke-miterlimit="10"/>
<path d="M879.634 193.112C899.709 193.112 915.983 176.838 915.983 156.763C915.983 136.688 899.709 120.414 879.634 120.414C859.559 120.414 843.285 136.688 843.285 156.763C843.285 176.838 859.559 193.112 879.634 193.112Z" stroke="#D4CDC5" stroke-width="1.5" stroke-miterlimit="10"/>
<path d="M879.636 168.959C886.371 168.959 891.83 163.499 891.83 156.765C891.83 150.03 886.371 144.57 879.636 144.57C872.901 144.57 867.441 150.03 867.441 156.765C867.441 163.499 872.901 168.959 879.636 168.959Z" stroke="#D4CDC5" stroke-width="1.5" stroke-miterlimit="10"/>
<path d="M971.72 193.112C991.795 193.112 1008.07 176.838 1008.07 156.763C1008.07 136.688 991.795 120.414 971.72 120.414C951.645 120.414 935.371 136.688 935.371 156.763C935.371 176.838 951.645 193.112 971.72 193.112Z" stroke="#D4CDC5" stroke-width="1.5" stroke-miterlimit="10"/>
<path d="M971.718 168.959C978.453 168.959 983.912 163.499 983.912 156.765C983.912 150.03 978.453 144.57 971.718 144.57C964.983 144.57 959.523 150.03 959.523 156.765C959.523 163.499 964.983 168.959 971.718 168.959Z" stroke="#D4CDC5" stroke-width="1.5" stroke-miterlimit="10"/>
<path d="M853.906 249.297H828.496V259.64H853.906V249.297Z" stroke="#D4CDC5" stroke-width="1.5" stroke-miterlimit="10"/>
<path d="M1022.84 249.297H997.426V259.64H1022.84V249.297Z" stroke="#D4CDC5" stroke-width="1.5" stroke-miterlimit="10"/>
<g opacity="0.5">
<g opacity="0.9">
<mask id="path-150-inside-1_2751_634" fill="white">
<path fill-rule="evenodd" clip-rule="evenodd" d="M193.603 431.276C193.603 422.82 200.386 415.969 208.758 415.969C217.122 415.969 223.913 422.82 223.913 431.276V432.438C223.913 440.895 217.131 447.745 208.758 447.745C200.386 447.745 193.603 440.895 193.603 432.438V431.276ZM196.622 562.722V461.481H221.08V562.722H196.622ZM231.702 528.972C232.894 550.669 249.005 564.328 273.268 564.328C296.727 564.328 312.043 551.874 312.043 532.791C312.043 505.71 292.579 503.067 276.667 500.907C265.666 499.413 256.362 498.15 256.362 489.2C256.362 482.367 262.121 478.352 270.874 478.352C278.629 478.352 287.179 483.178 288.575 492.617H310.851C309.853 472.928 293.75 459.875 270.282 459.875C249.605 459.875 234.289 472.33 234.289 490.003C234.289 514.799 252.73 518.002 268.233 520.695C279.476 522.647 289.175 524.332 289.175 533.79C289.175 539.821 282.816 544.639 273.268 544.639C262.333 544.639 254.975 538.616 253.977 528.972H231.702ZM359.351 564.328C335.088 564.328 318.978 550.669 317.785 528.972H340.061C341.059 538.616 348.417 544.639 359.351 544.639C368.899 544.639 375.259 539.821 375.259 533.79C375.259 524.332 365.56 522.647 354.317 520.695C338.813 518.002 320.373 514.799 320.373 490.003C320.373 472.33 335.689 459.875 356.366 459.875C379.834 459.875 395.936 472.928 396.934 492.617H374.659C373.263 483.178 364.713 478.352 356.958 478.352C348.205 478.352 342.446 482.367 342.446 489.2C342.446 498.15 351.749 499.413 362.751 500.907C378.663 503.067 398.127 505.71 398.127 532.791C398.127 551.874 382.811 564.328 359.351 564.328ZM444.327 512.102C444.327 542.23 466.205 564.328 496.828 564.328C527.248 564.328 549.126 542.23 549.126 512.102C549.126 481.974 527.451 459.875 496.828 459.875C466.205 459.875 444.327 481.974 444.327 512.102ZM524.474 512.102C524.474 530.382 513.336 543.033 496.828 543.033C480.126 543.033 468.988 530.382 468.988 512.102C468.988 493.822 480.32 481.171 496.828 481.171C513.336 481.171 524.474 493.822 524.474 512.102ZM559.672 461.49V562.723L559.681 562.74H584.139V507.498C584.139 492.635 593.687 481.786 607.404 481.786C619.929 481.786 628.284 491.422 628.284 505.285V562.731H652.742V500.058C652.742 476.353 638.026 459.884 615.353 459.884C601.036 459.884 589.695 466.111 584.13 477.156V461.49H559.672ZM33.3008 422.119V562.722H57.9529V469.519L95.9333 562.722H115.824L153.61 469.519V562.722H178.271V422.119H148.045L105.887 525.965L63.729 422.119H33.3008ZM406.347 431.276C406.347 422.82 413.13 415.969 421.502 415.969C429.866 415.969 436.657 422.82 436.657 431.276V432.438C436.657 440.895 429.874 447.745 421.502 447.745C413.13 447.745 406.347 440.895 406.347 432.438V431.276ZM409.366 562.722V461.481H433.824V562.722H409.366ZM674.036 560.852V538.155L751.198 442.945H678.011V420.249H780.628V442.945L704.262 538.155H780.628V560.852H674.036ZM1002.68 562.457C972.052 562.457 950.174 540.359 950.174 510.231C950.174 480.103 972.052 458.004 1002.68 458.004C1033.3 458.004 1054.97 480.103 1054.97 510.231C1054.97 540.359 1033.09 562.457 1002.68 562.457ZM1002.68 541.162C1019.18 541.162 1030.32 528.511 1030.32 510.231C1030.32 491.951 1019.18 479.3 1002.68 479.3C986.167 479.3 974.835 491.951 974.835 510.231C974.835 528.511 985.973 541.162 1002.68 541.162ZM951.113 480.3H935.4C919.89 480.3 913.725 493.754 913.725 513.042V560.852H889.267V459.611H913.725V477.49C918.697 464.634 926.453 459.611 939.375 459.611H951.113V480.3ZM878.763 527.111H854.898V527.12C852.31 536.764 844.157 541.983 831.632 541.983C816.114 541.983 805.779 531.536 803.987 515.263H877.968C878.171 513.247 878.366 510.24 878.366 506.824C878.366 482.718 862.458 458.014 829.645 458.014C796.832 458.014 780.527 483.324 780.527 509.839C780.527 536.354 798.819 562.467 831.632 562.467C856.293 562.467 874.983 548.603 878.763 527.111ZM804.587 498.99C807.175 483.726 815.928 476.491 829.645 476.491C844.166 476.491 852.919 486.135 853.908 498.99H804.587Z"/>
</mask>
<path fill-rule="evenodd" clip-rule="evenodd" d="M193.603 431.276C193.603 422.82 200.386 415.969 208.758 415.969C217.122 415.969 223.913 422.82 223.913 431.276V432.438C223.913 440.895 217.131 447.745 208.758 447.745C200.386 447.745 193.603 440.895 193.603 432.438V431.276ZM196.622 562.722V461.481H221.08V562.722H196.622ZM231.702 528.972C232.894 550.669 249.005 564.328 273.268 564.328C296.727 564.328 312.043 551.874 312.043 532.791C312.043 505.71 292.579 503.067 276.667 500.907C265.666 499.413 256.362 498.15 256.362 489.2C256.362 482.367 262.121 478.352 270.874 478.352C278.629 478.352 287.179 483.178 288.575 492.617H310.851C309.853 472.928 293.75 459.875 270.282 459.875C249.605 459.875 234.289 472.33 234.289 490.003C234.289 514.799 252.73 518.002 268.233 520.695C279.476 522.647 289.175 524.332 289.175 533.79C289.175 539.821 282.816 544.639 273.268 544.639C262.333 544.639 254.975 538.616 253.977 528.972H231.702ZM359.351 564.328C335.088 564.328 318.978 550.669 317.785 528.972H340.061C341.059 538.616 348.417 544.639 359.351 544.639C368.899 544.639 375.259 539.821 375.259 533.79C375.259 524.332 365.56 522.647 354.317 520.695C338.813 518.002 320.373 514.799 320.373 490.003C320.373 472.33 335.689 459.875 356.366 459.875C379.834 459.875 395.936 472.928 396.934 492.617H374.659C373.263 483.178 364.713 478.352 356.958 478.352C348.205 478.352 342.446 482.367 342.446 489.2C342.446 498.15 351.749 499.413 362.751 500.907C378.663 503.067 398.127 505.71 398.127 532.791C398.127 551.874 382.811 564.328 359.351 564.328ZM444.327 512.102C444.327 542.23 466.205 564.328 496.828 564.328C527.248 564.328 549.126 542.23 549.126 512.102C549.126 481.974 527.451 459.875 496.828 459.875C466.205 459.875 444.327 481.974 444.327 512.102ZM524.474 512.102C524.474 530.382 513.336 543.033 496.828 543.033C480.126 543.033 468.988 530.382 468.988 512.102C468.988 493.822 480.32 481.171 496.828 481.171C513.336 481.171 524.474 493.822 524.474 512.102ZM559.672 461.49V562.723L559.681 562.74H584.139V507.498C584.139 492.635 593.687 481.786 607.404 481.786C619.929 481.786 628.284 491.422 628.284 505.285V562.731H652.742V500.058C652.742 476.353 638.026 459.884 615.353 459.884C601.036 459.884 589.695 466.111 584.13 477.156V461.49H559.672ZM33.3008 422.119V562.722H57.9529V469.519L95.9333 562.722H115.824L153.61 469.519V562.722H178.271V422.119H148.045L105.887 525.965L63.729 422.119H33.3008ZM406.347 431.276C406.347 422.82 413.13 415.969 421.502 415.969C429.866 415.969 436.657 422.82 436.657 431.276V432.438C436.657 440.895 429.874 447.745 421.502 447.745C413.13 447.745 406.347 440.895 406.347 432.438V431.276ZM409.366 562.722V461.481H433.824V562.722H409.366ZM674.036 560.852V538.155L751.198 442.945H678.011V420.249H780.628V442.945L704.262 538.155H780.628V560.852H674.036ZM1002.68 562.457C972.052 562.457 950.174 540.359 950.174 510.231C950.174 480.103 972.052 458.004 1002.68 458.004C1033.3 458.004 1054.97 480.103 1054.97 510.231C1054.97 540.359 1033.09 562.457 1002.68 562.457ZM1002.68 541.162C1019.18 541.162 1030.32 528.511 1030.32 510.231C1030.32 491.951 1019.18 479.3 1002.68 479.3C986.167 479.3 974.835 491.951 974.835 510.231C974.835 528.511 985.973 541.162 1002.68 541.162ZM951.113 480.3H935.4C919.89 480.3 913.725 493.754 913.725 513.042V560.852H889.267V459.611H913.725V477.49C918.697 464.634 926.453 459.611 939.375 459.611H951.113V480.3ZM878.763 527.111H854.898V527.12C852.31 536.764 844.157 541.983 831.632 541.983C816.114 541.983 805.779 531.536 803.987 515.263H877.968C878.171 513.247 878.366 510.24 878.366 506.824C878.366 482.718 862.458 458.014 829.645 458.014C796.832 458.014 780.527 483.324 780.527 509.839C780.527 536.354 798.819 562.467 831.632 562.467C856.293 562.467 874.983 548.603 878.763 527.111ZM804.587 498.99C807.175 483.726 815.928 476.491 829.645 476.491C844.166 476.491 852.919 486.135 853.908 498.99H804.587Z" fill="#D4CDC5" fill-opacity="0.5"/>
<path d="M196.622 461.481V460.679H195.82V461.481H196.622ZM196.622 562.722H195.82V563.524H196.622V562.722ZM221.08 461.481H221.882V460.679H221.08V461.481ZM221.08 562.722V563.524H221.882V562.722H221.08ZM231.702 528.972V528.17H230.854L230.901 529.016L231.702 528.972ZM276.667 500.907L276.559 501.701L276.667 500.907ZM288.575 492.617L287.781 492.734L287.883 493.419H288.575V492.617ZM310.851 492.617V493.419H311.694L311.651 492.577L310.851 492.617ZM268.233 520.695L268.096 521.485L268.233 520.695ZM253.977 528.972L254.775 528.89L254.7 528.17H253.977V528.972ZM317.785 528.972V528.17H316.938L316.985 529.016L317.785 528.972ZM340.061 528.972L340.859 528.89L340.784 528.17H340.061V528.972ZM354.317 520.695L354.179 521.485L354.317 520.695ZM396.934 492.617V493.419H397.778L397.735 492.577L396.934 492.617ZM374.659 492.617L373.865 492.734L373.966 493.419H374.659V492.617ZM362.751 500.907L362.643 501.701L362.751 500.907ZM559.672 562.723H558.871V562.911L558.954 563.079L559.672 562.723ZM559.672 461.49V460.688H558.871V461.49H559.672ZM559.681 562.74L558.963 563.096L559.184 563.542H559.681V562.74ZM584.139 562.74V563.542H584.94V562.74H584.139ZM628.284 562.731H627.482V563.533H628.284V562.731ZM652.742 562.731V563.533H653.544V562.731H652.742ZM584.13 477.156H583.328L584.846 477.517L584.13 477.156ZM584.13 461.49H584.932V460.688H584.13V461.49ZM33.3008 562.722H32.4988V563.524H33.3008V562.722ZM33.3008 422.119V421.317H32.4988V422.119H33.3008ZM57.9529 562.722V563.524H58.7548V562.722H57.9529ZM57.9529 469.519L58.6956 469.216L57.151 469.519H57.9529ZM95.9333 562.722L95.1906 563.024L95.3941 563.524H95.9333V562.722ZM115.824 562.722V563.524H116.364L116.567 563.023L115.824 562.722ZM153.61 469.519H154.412L152.867 469.218L153.61 469.519ZM153.61 562.722H152.808V563.524H153.61V562.722ZM178.271 562.722V563.524H179.072V562.722H178.271ZM178.271 422.119H179.072V421.317H178.271V422.119ZM148.045 422.119V421.317H147.505L147.302 421.817L148.045 422.119ZM105.887 525.965L105.144 526.267L105.887 528.097L106.63 526.267L105.887 525.965ZM63.729 422.119L64.4721 421.817L64.269 421.317H63.729V422.119ZM409.366 461.481V460.679H408.564V461.481H409.366ZM409.366 562.722H408.564V563.524H409.366V562.722ZM433.824 461.481H434.626V460.679H433.824V461.481ZM433.824 562.722V563.524H434.626V562.722H433.824ZM674.036 538.155L673.413 537.65L673.235 537.871V538.155H674.036ZM674.036 560.852H673.235V561.654H674.036V560.852ZM751.198 442.945L751.821 443.45L752.88 442.143H751.198V442.945ZM678.011 442.945H677.209V443.747H678.011V442.945ZM678.011 420.249V419.447H677.209V420.249H678.011ZM780.628 420.249H781.43V419.447H780.628V420.249ZM780.628 442.945L781.254 443.447L781.43 443.227V442.945H780.628ZM704.262 538.155L703.636 537.653L702.591 538.957H704.262V538.155ZM780.628 538.155H781.43V537.353H780.628V538.155ZM780.628 560.852V561.654H781.43V560.852H780.628ZM951.113 480.3V481.102H951.915V480.3H951.113ZM913.725 560.852V561.654H914.527V560.852H913.725ZM889.267 560.852H888.465V561.654H889.267V560.852ZM889.267 459.611V458.809H888.465V459.611H889.267ZM913.725 459.611H914.527V458.809H913.725V459.611ZM913.725 477.49H912.923L914.473 477.779L913.725 477.49ZM951.113 459.611H951.915V458.809H951.113V459.611ZM854.898 527.111V526.309H854.096V527.111H854.898ZM878.763 527.111L879.553 527.25L879.719 526.309H878.763V527.111ZM854.898 527.12L855.672 527.327L855.7 527.225V527.12H854.898ZM803.987 515.263V514.461H803.091L803.189 515.351L803.987 515.263ZM877.968 515.263V516.065H878.694L878.766 515.343L877.968 515.263ZM804.587 498.99L803.796 498.856L803.638 499.792H804.587V498.99ZM853.908 498.99V499.792H854.774L854.708 498.929L853.908 498.99ZM208.758 415.167C199.935 415.167 192.801 422.384 192.801 431.276H194.405C194.405 423.255 200.836 416.771 208.758 416.771V415.167ZM224.715 431.276C224.715 422.384 217.572 415.167 208.758 415.167V416.771C216.672 416.771 223.111 423.255 223.111 431.276H224.715ZM224.715 432.438V431.276H223.111V432.438H224.715ZM208.758 448.547C217.581 448.547 224.715 441.33 224.715 432.438H223.111C223.111 440.459 216.68 446.943 208.758 446.943V448.547ZM192.801 432.438C192.801 441.33 199.935 448.547 208.758 448.547V446.943C200.836 446.943 194.405 440.459 194.405 432.438H192.801ZM192.801 431.276V432.438H194.405V431.276H192.801ZM195.82 461.481V562.722H197.424V461.481H195.82ZM221.08 460.679H196.622V462.283H221.08V460.679ZM221.882 562.722V461.481H220.278V562.722H221.882ZM196.622 563.524H221.08V561.92H196.622V563.524ZM273.268 563.526C261.284 563.526 251.388 560.154 244.352 554.176C237.325 548.204 233.088 539.578 232.502 528.928L230.901 529.016C231.508 540.064 235.922 549.116 243.314 555.398C250.698 561.673 260.988 565.13 273.268 565.13V563.526ZM311.241 532.791C311.241 542.098 307.515 549.751 300.947 555.093C294.362 560.448 284.863 563.526 273.268 563.526V565.13C285.132 565.13 295.02 561.981 301.959 556.338C308.913 550.682 312.845 542.566 312.845 532.791H311.241ZM276.559 501.701C284.556 502.787 293.214 503.976 299.895 508.183C306.481 512.329 311.241 519.482 311.241 532.791H312.845C312.845 519.019 307.873 511.31 300.749 506.825C293.72 502.4 284.69 501.187 276.775 500.112L276.559 501.701ZM255.56 489.2C255.56 491.586 256.184 493.517 257.345 495.074C258.498 496.621 260.136 497.738 262.067 498.584C265.894 500.26 271.099 500.96 276.559 501.701L276.775 500.112C271.233 499.36 266.286 498.681 262.711 497.115C260.941 496.34 259.566 495.37 258.631 494.115C257.703 492.872 257.164 491.289 257.164 489.2H255.56ZM270.874 477.55C266.388 477.55 262.575 478.577 259.862 480.567C257.121 482.576 255.56 485.529 255.56 489.2H257.164C257.164 486.038 258.483 483.567 260.81 481.86C263.165 480.134 266.608 479.154 270.874 479.154V477.55ZM289.368 492.5C287.898 482.557 278.904 477.55 270.874 477.55V479.154C278.355 479.154 286.461 483.799 287.781 492.734L289.368 492.5ZM310.851 491.815H288.575V493.419H310.851V491.815ZM270.282 460.677C281.872 460.677 291.575 463.9 298.489 469.486C305.392 475.065 309.562 483.037 310.05 492.658L311.651 492.577C311.141 482.508 306.761 474.109 299.497 468.239C292.243 462.377 282.161 459.073 270.282 459.073V460.677ZM235.091 490.003C235.091 472.906 249.901 460.677 270.282 460.677V459.073C249.309 459.073 233.487 471.753 233.487 490.003H235.091ZM268.37 519.905C260.58 518.552 252.268 517.096 245.883 512.964C239.586 508.89 235.091 502.158 235.091 490.003H233.487C233.487 502.645 238.212 509.912 245.012 514.311C251.722 518.653 260.382 520.145 268.096 521.485L268.37 519.905ZM289.977 533.79C289.977 531.279 289.33 529.233 288.137 527.562C286.95 525.901 285.263 524.667 283.269 523.706C279.316 521.799 273.953 520.874 268.37 519.905L268.096 521.485C273.757 522.468 278.865 523.362 282.572 525.15C284.408 526.036 285.848 527.118 286.832 528.495C287.808 529.861 288.373 531.572 288.373 533.79H289.977ZM273.268 545.441C278.169 545.441 282.317 544.205 285.263 542.132C288.217 540.053 289.977 537.115 289.977 533.79H288.373C288.373 536.496 286.953 538.982 284.34 540.82C281.72 542.664 277.914 543.837 273.268 543.837V545.441ZM253.18 529.055C253.699 534.071 255.881 538.188 259.39 541.044C262.891 543.894 267.655 545.441 273.268 545.441V543.837C267.946 543.837 263.563 542.372 260.402 539.8C257.249 537.234 255.254 533.518 254.775 528.89L253.18 529.055ZM231.702 529.774H253.977V528.17H231.702V529.774ZM316.985 529.016C317.592 540.064 322.005 549.116 329.398 555.398C336.781 561.673 347.072 565.13 359.351 565.13V563.526C347.368 563.526 337.471 560.154 330.436 554.176C323.409 548.204 319.171 539.578 318.586 528.928L316.985 529.016ZM340.061 528.17H317.785V529.774H340.061V528.17ZM359.351 543.837C354.029 543.837 349.646 542.372 346.486 539.8C343.333 537.234 341.338 533.518 340.859 528.89L339.263 529.055C339.782 534.071 341.965 538.188 345.474 541.044C348.975 543.894 353.739 545.441 359.351 545.441V543.837ZM374.457 533.79C374.457 536.496 373.037 538.982 370.424 540.82C367.804 542.664 363.998 543.837 359.351 543.837V545.441C364.253 545.441 368.401 544.205 371.347 542.132C374.301 540.053 376.061 537.115 376.061 533.79H374.457ZM354.179 521.485C359.84 522.468 364.949 523.362 368.656 525.15C370.492 526.036 371.932 527.118 372.915 528.495C373.892 529.861 374.457 531.572 374.457 533.79H376.061C376.061 531.279 375.414 529.233 374.22 527.562C373.034 525.901 371.347 524.667 369.353 523.706C365.399 521.799 360.037 520.874 354.454 519.905L354.179 521.485ZM319.571 490.003C319.571 502.645 324.296 509.912 331.096 514.311C337.806 518.653 346.466 520.145 354.179 521.485L354.454 519.905C346.664 518.552 338.352 517.096 331.967 512.964C325.67 508.89 321.175 502.158 321.175 490.003H319.571ZM356.366 459.073C335.392 459.073 319.571 471.753 319.571 490.003H321.175C321.175 472.906 335.985 460.677 356.366 460.677V459.073ZM397.735 492.577C397.225 482.508 392.845 474.109 385.581 468.239C378.327 462.377 368.245 459.073 356.366 459.073V460.677C367.955 460.677 377.659 463.9 384.572 469.486C391.476 475.065 395.646 483.037 396.133 492.658L397.735 492.577ZM374.659 493.419H396.934V491.815H374.659V493.419ZM356.958 479.154C364.439 479.154 372.544 483.799 373.865 492.734L375.452 492.5C373.982 482.557 364.988 477.55 356.958 477.55V479.154ZM343.248 489.2C343.248 486.038 344.566 483.567 346.894 481.86C349.248 480.134 352.692 479.154 356.958 479.154V477.55C352.472 477.55 348.659 478.577 345.945 480.567C343.205 482.576 341.644 485.529 341.644 489.2H343.248ZM362.859 500.112C357.317 499.36 352.37 498.681 348.795 497.115C347.025 496.34 345.649 495.37 344.714 494.115C343.787 492.872 343.248 491.289 343.248 489.2H341.644C341.644 491.586 342.267 493.517 343.429 495.074C344.582 496.621 346.22 497.738 348.151 498.584C351.978 500.26 357.183 500.96 362.643 501.701L362.859 500.112ZM398.929 532.791C398.929 519.019 393.956 511.31 386.833 506.825C379.804 502.4 370.774 501.187 362.859 500.112L362.643 501.701C370.639 502.787 379.298 503.976 385.978 508.183C392.565 512.329 397.325 519.482 397.325 532.791H398.929ZM359.351 565.13C371.216 565.13 381.104 561.981 388.042 556.338C394.997 550.682 398.929 542.566 398.929 532.791H397.325C397.325 542.098 393.599 549.751 387.03 555.093C380.446 560.448 370.946 563.526 359.351 563.526V565.13ZM496.828 563.526C466.648 563.526 445.129 541.786 445.129 512.102H443.525C443.525 542.673 465.763 565.13 496.828 565.13V563.526ZM548.324 512.102C548.324 541.788 526.804 563.526 496.828 563.526V565.13C527.692 565.13 549.928 542.671 549.928 512.102H548.324ZM496.828 460.677C527.004 460.677 548.324 482.413 548.324 512.102H549.928C549.928 481.534 527.897 459.073 496.828 459.073V460.677ZM445.129 512.102C445.129 482.417 466.648 460.677 496.828 460.677V459.073C465.763 459.073 443.525 481.53 443.525 512.102H445.129ZM496.828 543.835C505.3 543.835 512.433 540.582 517.441 534.955C522.441 529.336 525.276 521.403 525.276 512.102H523.672C523.672 521.081 520.938 528.613 516.243 533.889C511.554 539.158 504.865 542.231 496.828 542.231V543.835ZM468.186 512.102C468.186 521.403 471.021 529.337 476.047 534.957C481.08 540.584 488.262 543.835 496.828 543.835V542.231C488.692 542.231 481.954 539.156 477.242 533.888C472.524 528.612 469.79 521.081 469.79 512.102H468.186ZM496.828 480.369C488.357 480.369 481.177 483.62 476.121 489.245C471.071 494.863 468.186 502.797 468.186 512.102H469.79C469.79 503.126 472.57 495.595 477.314 490.317C482.051 485.047 488.791 481.973 496.828 481.973V480.369ZM525.276 512.102C525.276 502.801 522.441 494.867 517.441 489.248C512.433 483.621 505.3 480.369 496.828 480.369V481.973C504.865 481.973 511.554 485.046 516.243 490.314C520.938 495.591 523.672 503.123 523.672 512.102H525.276ZM560.474 562.723V461.49H558.871V562.723H560.474ZM560.399 562.383L560.391 562.366L558.954 563.079L558.963 563.096L560.399 562.383ZM584.139 561.938H559.681V563.542H584.139V561.938ZM583.337 507.498V562.74H584.94V507.498H583.337ZM607.404 480.984C593.164 480.984 583.337 492.275 583.337 507.498H584.94C584.94 492.994 594.209 482.588 607.404 482.588V480.984ZM629.086 505.285C629.086 498.195 626.948 492.12 623.142 487.806C619.328 483.484 613.885 480.984 607.404 480.984V482.588C613.447 482.588 618.444 484.906 621.939 488.867C625.442 492.837 627.482 498.512 627.482 505.285H629.086ZM629.086 562.731V505.285H627.482V562.731H629.086ZM652.742 561.929H628.284V563.533H652.742V561.929ZM651.94 500.058V562.731H653.544V500.058H651.94ZM615.353 460.686C626.485 460.686 635.612 464.723 641.96 471.625C648.314 478.532 651.94 488.37 651.94 500.058H653.544C653.544 488.04 649.812 477.792 643.14 470.539C636.462 463.279 626.894 459.082 615.353 459.082V460.686ZM584.846 477.517C590.249 466.794 601.276 460.686 615.353 460.686V459.082C600.795 459.082 589.141 465.429 583.414 476.795L584.846 477.517ZM583.328 461.49V477.156H584.932V461.49H583.328ZM559.672 462.292H584.13V460.688H559.672V462.292ZM34.1027 562.722V422.119H32.4988V562.722H34.1027ZM57.9529 561.92H33.3008V563.524H57.9529V561.92ZM57.151 469.519V562.722H58.7548V469.519H57.151ZM96.6759 562.419L58.6956 469.216L57.2103 469.821L95.1906 563.024L96.6759 562.419ZM115.824 561.92H95.9333V563.524H115.824V561.92ZM152.867 469.218L115.081 562.42L116.567 563.023L154.353 469.82L152.867 469.218ZM154.412 562.722V469.519H152.808V562.722H154.412ZM178.271 561.92H153.61V563.524H178.271V561.92ZM177.469 422.119V562.722H179.072V422.119H177.469ZM148.045 422.921H178.271V421.317H148.045V422.921ZM106.63 526.267L148.788 422.42L147.302 421.817L105.144 525.663L106.63 526.267ZM62.986 422.42L105.144 526.267L106.63 525.663L64.4721 421.817L62.986 422.42ZM33.3008 422.921H63.729V421.317H33.3008V422.921ZM421.502 415.167C412.679 415.167 405.545 422.384 405.545 431.276H407.149C407.149 423.255 413.58 416.771 421.502 416.771V415.167ZM437.459 431.276C437.459 422.384 430.316 415.167 421.502 415.167V416.771C429.416 416.771 435.855 423.255 435.855 431.276H437.459ZM437.459 432.438V431.276H435.855V432.438H437.459ZM421.502 448.547C430.325 448.547 437.459 441.33 437.459 432.438H435.855C435.855 440.459 429.424 446.943 421.502 446.943V448.547ZM405.545 432.438C405.545 441.33 412.679 448.547 421.502 448.547V446.943C413.58 446.943 407.149 440.459 407.149 432.438H405.545ZM405.545 431.276V432.438H407.149V431.276H405.545ZM408.564 461.481V562.722H410.168V461.481H408.564ZM433.824 460.679H409.366V462.283H433.824V460.679ZM434.626 562.722V461.481H433.022V562.722H434.626ZM409.366 563.524H433.824V561.92H409.366V563.524ZM673.235 538.155V560.852H674.838V538.155H673.235ZM750.575 442.44L673.413 537.65L674.66 538.66L751.821 443.45L750.575 442.44ZM678.011 443.747H751.198V442.143H678.011V443.747ZM677.209 420.249V442.945H678.813V420.249H677.209ZM780.628 419.447H678.011V421.05H780.628V419.447ZM781.43 442.945V420.249H779.826V442.945H781.43ZM704.887 538.657L781.254 443.447L780.003 442.443L703.636 537.653L704.887 538.657ZM780.628 537.353H704.262V538.957H780.628V537.353ZM781.43 560.852V538.155H779.826V560.852H781.43ZM674.036 561.654H780.628V560.05H674.036V561.654ZM949.372 510.231C949.372 540.802 971.61 563.259 1002.68 563.259V561.655C972.495 561.655 950.976 539.915 950.976 510.231H949.372ZM1002.68 457.202C971.61 457.202 949.372 479.659 949.372 510.231H950.976C950.976 480.546 972.495 458.806 1002.68 458.806V457.202ZM1055.78 510.231C1055.78 479.663 1033.74 457.202 1002.68 457.202V458.806C1032.85 458.806 1054.17 480.542 1054.17 510.231H1055.78ZM1002.68 563.259C1033.54 563.259 1055.78 540.8 1055.78 510.231H1054.17C1054.17 539.917 1032.65 561.655 1002.68 561.655V563.259ZM1029.52 510.231C1029.52 519.21 1026.78 526.742 1022.09 532.018C1017.4 537.287 1010.71 540.36 1002.68 540.36V541.964C1011.15 541.964 1018.28 538.711 1023.29 533.084C1028.29 527.465 1031.12 519.532 1031.12 510.231H1029.52ZM1002.68 480.102C1010.71 480.102 1017.4 483.175 1022.09 488.443C1026.78 493.72 1029.52 501.252 1029.52 510.231H1031.12C1031.12 500.93 1028.29 492.996 1023.29 487.377C1018.28 481.75 1011.15 478.498 1002.68 478.498V480.102ZM975.637 510.231C975.637 501.255 978.417 493.724 983.161 488.446C987.898 483.176 994.638 480.102 1002.68 480.102V478.498C994.204 478.498 987.024 481.749 981.968 487.374C976.918 492.992 974.033 500.926 974.033 510.231H975.637ZM1002.68 540.36C994.539 540.36 987.801 537.285 983.089 532.017C978.371 526.741 975.637 519.21 975.637 510.231H974.033C974.033 519.532 976.868 527.466 981.894 533.086C986.927 538.713 994.109 541.964 1002.68 541.964V540.36ZM935.4 481.102H951.113V479.498H935.4V481.102ZM914.527 513.042C914.527 503.46 916.062 495.445 919.433 489.852C922.768 484.317 927.927 481.102 935.4 481.102V479.498C927.362 479.498 921.684 483.01 918.059 489.024C914.47 494.98 912.923 503.336 912.923 513.042H914.527ZM914.527 560.852V513.042H912.923V560.852H914.527ZM889.267 561.654H913.725V560.05H889.267V561.654ZM888.465 459.611V560.852H890.069V459.611H888.465ZM913.725 458.809H889.267V460.413H913.725V458.809ZM914.527 477.49V459.611H912.923V477.49H914.527ZM939.375 458.809C932.812 458.809 927.466 460.085 923.115 463.068C918.764 466.051 915.5 470.677 912.977 477.2L914.473 477.779C916.922 471.447 920.022 467.133 924.022 464.391C928.022 461.649 933.015 460.413 939.375 460.413V458.809ZM951.113 458.809H939.375V460.413H951.113V458.809ZM951.915 480.3V459.611H950.311V480.3H951.915ZM854.898 527.913H878.763V526.309H854.898V527.913ZM855.7 527.12V527.111H854.096V527.12H855.7ZM831.632 542.785C838 542.785 843.332 541.459 847.423 538.843C851.529 536.219 854.329 532.332 855.672 527.327L854.123 526.912C852.878 531.552 850.309 535.095 846.56 537.492C842.796 539.898 837.789 541.181 831.632 541.181V542.785ZM803.189 515.351C804.102 523.634 807.197 530.499 812.101 535.298C817.013 540.104 823.684 542.785 831.632 542.785V541.181C824.063 541.181 817.807 538.638 813.223 534.152C808.633 529.66 805.664 523.165 804.784 515.175L803.189 515.351ZM877.968 514.461H803.987V516.065H877.968V514.461ZM877.564 506.824C877.564 510.212 877.371 513.192 877.17 515.183L878.766 515.343C878.972 513.303 879.168 510.269 879.168 506.824H877.564ZM829.645 458.816C845.832 458.816 857.789 464.901 865.708 473.909C873.641 482.932 877.564 494.939 877.564 506.824H879.168C879.168 494.603 875.137 482.204 866.913 472.85C858.675 463.479 846.271 457.212 829.645 457.212V458.816ZM781.329 509.839C781.329 496.737 785.358 483.975 793.393 474.502C801.412 465.047 813.465 458.816 829.645 458.816V457.212C813.012 457.212 800.506 463.636 792.169 473.465C783.848 483.276 779.725 496.426 779.725 509.839H781.329ZM831.632 561.665C799.354 561.665 781.329 536.009 781.329 509.839H779.725C779.725 536.698 798.284 563.269 831.632 563.269V561.665ZM877.973 526.972C874.274 548.006 855.985 561.665 831.632 561.665V563.269C856.601 563.269 875.692 549.2 879.553 527.25L877.973 526.972ZM829.645 475.689C822.644 475.689 816.821 477.538 812.413 481.414C808.01 485.287 805.111 491.101 803.796 498.856L805.378 499.125C806.651 491.615 809.423 486.18 813.472 482.618C817.517 479.061 822.929 477.292 829.645 477.292V475.689ZM854.708 498.929C854.2 492.336 851.697 486.519 847.41 482.345C843.118 478.166 837.091 475.689 829.645 475.689V477.292C836.719 477.292 842.33 479.637 846.291 483.494C850.259 487.357 852.627 492.789 853.109 499.052L854.708 498.929ZM804.587 499.792H853.908V498.189H804.587V499.792Z" fill="#D4CDC5" mask="url(#path-150-inside-1_2751_634)"/>
</g>
</g>
</svg>
