<svg width="1454" height="629" viewBox="0 0 1454 629" fill="none" xmlns="http://www.w3.org/2000/svg">
<path fill-rule="evenodd" clip-rule="evenodd" d="M1331.22 585.469L1331.22 53.1562C1331.22 47.3427 1337.79 44.2892 1342.36 47.8125C1408.95 100.603 1454 202.486 1454 319.4C1454 436.315 1408.95 538.021 1342.36 590.871C1337.79 594.394 1331.22 591.341 1331.22 585.527L1331.22 585.469ZM1082.98 1.08025C1079.12 0.962911 1075.96 4.13108 1075.96 8.00329L1075.96 620.985C1075.96 624.858 1079.12 628.026 1082.98 627.908C1206.96 622.863 1306.45 484.402 1306.45 314.494C1306.45 144.587 1207.08 6.06719 1082.98 1.08025ZM412.507 314.494C412.507 140.792 555.433 -3.92776e-05 731.848 -3.15663e-05C908.262 -2.3855e-05 1051.19 140.792 1051.19 314.494C1051.19 488.196 908.262 628.989 731.848 628.989C555.433 628.988 412.507 488.196 412.507 314.494ZM387.736 620.985C387.736 624.858 384.575 628.026 380.71 627.908C251.194 623.039 147.557 484.519 147.557 314.494C147.557 144.469 251.37 5.89118 380.71 1.08026C384.575 0.96292 387.736 4.13109 387.736 8.0033L387.736 620.868L387.736 620.985ZM122.782 586.602L122.782 54.2334C122.782 48.4187 116.212 45.3645 111.636 48.8886C45.0538 101.749 0.000455245 203.477 0.000450133 320.417C0.000445021 437.358 45.0538 539.144 111.636 591.946C116.212 595.47 122.782 592.416 122.782 586.602Z" fill="#EBFD40"/>
</svg>
